<?xml version="1.0" encoding="utf-8"?>
<!-- Generator: Adobe Illustrator 23.0.5, SVG Export Plug-In . SVG Version: 6.00 Build 0)  -->
<svg version="1.1" id="Layer_1" xmlns="http://www.w3.org/2000/svg" xmlns:xlink="http://www.w3.org/1999/xlink" x="0px" y="0px"
	 viewBox="0 0 535.8 418.8" style="enable-background:new 0 0 535.8 418.8;" xml:space="preserve">
<style type="text/css">
	.st0{fill:#010100;}
	.st1{fill:#9E6F41;}
	.st2{fill:#B98E5E;}
	.st3{fill:#80CC33;}
	.st4{fill:#DBE6B7;}
</style>
<g>
	<path class="st0" d="M302.9,412.6c-0.8,0-3.1,0-5.5-0.8c-2.3,0-7.8-0.8-10.9-0.8c-3.1,0-9.4-0.8-13.3-1.6c-3.9,0-9.4-1.6-12.5-1.6
		c-8.6-1.6-14.8-3.1-14.8-3.1s-3.1-0.8-7-0.8c-3.9-0.8-8.6-1.6-11.7-2.3c-4.7-1.6-21.9-7-28.1-9.4c-1.6-0.8-5.5-2.3-9.4-3.1
		c-10.9-3.9-31.3-15.6-48.5-26.6c-14.1-9.4-21.9-15.6-38.3-30.5c-7-6.3-13.3-12.5-14.8-14.1c-0.8-0.8-5.5-5.5-8.6-9.4
		c-6.3-6.3-7.8-9.4-12.5-17.2c-3.1-5.5-8.6-13.3-11.7-17.2c-7-10.9-14.1-24.2-18-34.4c-7-21.1-9.4-28.1-10.9-37.5
		c-1.6-8.6-3.1-18-3.9-28.1c-0.8-6.3,0-10.9,2.3-24.2c1.6-7.8,2.3-10.9,6.3-27.4c0.8-3.9,2.3-9.4,3.1-12.5c1.6-4.7,2.3-7,6.3-15.6
		c3.1-5.5,7-12.5,8.6-15.6c3.1-6.3,3.9-6.3,9.4-10.9c3.9-3.1,6.3-5.5,7-5.5c3.1-0.8,10.2-3.1,10.2-3.1s0,0,0,0.8V61
		c0,0,0.8,0,0.8-0.8c0,0,1.6-1.6,3.1-2.3c2.3-1.6,2.3-1.6,2.3-3.1c-0.8-2.3,1.6-4.7,11.7-12.5c7.8-6.3,10.2-7.8,15.6-9.4
		c10.2-4.7,23.4-9.4,31.3-10.9c3.1-0.8,7.8-1.6,10.9-2.3c6.3-1.6,8.6-1.6,19.5-3.1c4.7-0.8,10.9-1.6,14.1-1.6
		c3.1-0.8,10.2-0.8,14.8-1.6c4.7,0,9.4-0.8,10.2-0.8c1.6,0,11.7-0.8,25-0.8c23.4,0,23.4,0,29.7,1.6c3.1,0.8,13.3,2.3,21.9,3.9
		c10.9,1.6,19.5,3.9,26.6,5.5c6.3,1.6,13.3,3.1,15.6,3.9c14.1,3.1,30.5,9.4,49.2,17.2c16.4,6.3,20.3,8.6,23.4,10.2
		c1.6,0.8,6.3,3.1,10.2,4.7c3.9,1.6,8.6,3.9,10.2,5.5c1.6,1.6,5.5,3.1,7.8,4.7c5.5,3.1,15.6,9.4,25.8,17.2
		c20.3,14.8,32.8,25.8,45.3,41.4c6.3,7.8,7,10.2,11.7,18.8c3.1,5.5,3.9,7.8,4.7,10.2c0.8,2.3,0.8,3.9,1.6,5.5
		c2.3,11.7,1.6,23.4,3.1,36.7c0,1.6,0.8,6.3,0,12.5c-0.8,7-1.6,7.8-3.9,18.8c-1.6,8.6-1.6,8.6-3.1,15.6c-0.8,3.1-1.6,7-3.9,13.3
		c-2.3,7-3.9,10.9-8.6,21.9c-3.1,7-6.3,13.3-6.3,13.3s-0.8,0.8-0.8,1.6c-1.6,3.1-6.3,11.7-9.4,17.2c-5.5,10.2-14.8,25-16.4,27.4
		c0,0-1.6,2.3-3.1,4.7c-3.9,5.5-15.6,17.2-22.7,22.7c-3.1,2.3-5.5,4.7-6.3,5.5c-0.8,0-1.6,0.8-2.3,1.6c-0.8,0.8-3.9,2.3-6.3,3.1
		c-0.8,0-0.8,0.8-1.6,0.8c-0.8,0.8-1.6,0.8-1.6,0.8c-1.6,0.8-14.8,10.2-17.2,11.7c-4.7,3.1-11.7,6.3-26.6,11.7
		c-1.6,0.8-3.1,0.8-3.9,1.6c-5.5,2.3-12.5,4.7-18,4.7c-3.1,0-7,0.8-9.4,1.6c-2.3,0.8-4.7,0.8-7,1.6c-2.3,0.8-7,0.8-21.9,0.8
		C312.2,412.6,303.6,412.6,302.9,412.6"/>
	<path class="st1" d="M444.3,342.3c7-7.8,16.4-18,25.8-32.8c5.5-10.2,11.7-19.5,17.2-29.7c6.3-14.1,10.2-25.8,12.5-34.4
		c7.8-27.4,7-40.6,6.3-44.5c-0.8-6.3-1.6-10.9-2.3-14.8v-10.2l-2.3-7c-0.8-3.9-2.3-7.8-2.3-8.6c0-2.3-9.4-16.4-15.6-25
		c-8.6-11.7-16.4-20.3-23.4-25.8c-3.1-2.3-9.4-7.8-14.8-11.7c-10.2-7.8-18.8-14.1-21.9-15.6c-1.6-0.8-3.9-2.3-5.5-3.9
		c-2.3-2.3-4.7-3.1-9.4-3.9c-2.3-0.8-10.9-4.7-18.8-9.4c-3.9-2.3-7-3.9-11.7-4.7c-3.1-0.8-12.5-3.9-20.3-7
		c-7.8-3.1-15.6-5.5-17.2-6.3c-1.6-0.8-4.7-1.6-7.8-2.3s-8.6-2.3-13.3-3.1c-4.7-0.8-11.7-3.1-16.4-4.7c-10.2-3.1-22.7-6.3-29.7-7
		c-3.1-0.8-10.9-1.6-17.2-2.3c-17.2-2.3-24.2-3.1-45.3-2.3c-15.6,0-19.5,0-28.1,1.6c-10.9,1.6-14.8,2.3-28.9,5.5
		c-14.8,3.9-21.1,5.5-25.8,7.8c-2.3,0.8-6.3,2.3-8.6,3.1c-2.3,0.8-7,2.3-10.9,4.7c-3.1,1.6-7.8,3.9-10.2,4.7
		c-1.6,0.8-3.9,2.3-4.7,2.3c-0.8,0.8-1.6,1.6-1.6,1.6s-1.6,0.8-3.1,0.8c-5.5,2.3-6.3,2.3-6.3,1.6s-4.7,2.3-7.8,5.5
		c-3.1,3.1-14.1,19.5-18,27.4c-3.9,7-11.7,29.7-13.3,35.9c-0.8,1.6-1.6,5.5-1.6,7.8c-0.8,2.3-1.6,7-1.6,9.4c0,2.3-0.8,7-1.6,9.4
		c-0.8,6.3-0.8,18,0.8,30.5c3.1,27.4,13.3,53.9,35.9,97.7c5.5,10.9,29.7,37.5,45.3,50.8c8.6,7,20.3,16.4,29.7,22.7
		c7.8,5.5,14.1,8.6,32.8,16.4c7,3.1,21.1,8.6,27.4,10.9c0.8,0,4.7,1.6,8.6,3.1c7.8,3.1,14.1,4.7,20.3,5.5c2.3,0.8,7,1.6,10.2,2.3
		c5.5,1.6,8.6,1.6,31.3,4.7c7.8,0.8,14.8,1.6,14.8,1.6c0.8,0.8,15.6,0,21.9-0.8c3.9-0.8,12.5-1.6,19.5-2.3c7.8-0.8,7.8-1.6,23.4-4.7
		c14.8-3.1,15.6-2.3,20.3-3.9c2.3-0.8,6.3-2.3,18-9.4c14.1-7.8,21.1-11.7,28.1-18C434.1,353.2,438.8,348.6,444.3,342.3 M175.5,135.2
		c-0.8,0-1.6-0.8-2.3-0.8s-4.7-3.1-4.7-4.7c0,0,0.8-1.6,1.6-2.3c2.3-2.3,2.3-2.3,9.4-0.8c3.9,0.8,5.5,1.6,7.8,3.1
		c1.6,0.8,3.1,2.3,4.7,3.1c2.3,1.6,2.3,2.3-0.8,3.1c-1.6,0.8-7.8,0.8-9.4,0c-0.8,0-2.3-0.8-3.1-0.8C177.8,136,176.3,136,175.5,135.2
		 M181.7,149.3c0,0-0.8-1.6,0-2.3c0-0.8,0.8-1.6,1.6-2.3c1.6-0.8,2.3-0.8,6.3-0.8c4.7,0,6.3,0,8.6,2.3c1.6,1.6,1.6,1.6-3.9,3.9
		c-3.1,1.6-3.9,1.6-7.8,1.6h-3.9v-1.6C181.7,150.1,181.7,149.3,181.7,149.3 M197.4,121.1c-1.6-1.6-3.1-2.3-3.9-3.1
		c-0.8-0.8-1.6-1.6-2.3-2.3c0-0.8-0.8-1.6-1.6-1.6c-1.6,0-3.1-2.3-3.1-4.7c0-1.6,0-1.6,2.3-3.1c1.6-0.8,2.3-1.6,3.9-1.6
		c1.6,0,2.3,0,3.9,2.3c0.8,1.6,3.1,3.9,3.9,5.5c1.6,1.6,3.1,3.9,3.9,5.5c0.8,2.3,0.8,2.3,0.8,3.9c-0.8,1.6-0.8,1.6-3.1,0.8
		C200.5,123.5,198.9,122.7,197.4,121.1 M192.7,164.9c-1.6,0.8-3.1,1.6-4.7,2.3c-2.3,1.6-3.1,1.6-5.5,0.8c-1.6-0.8-1.6-0.8-1.6-3.9
		c0-1.6,0-3.1,0.8-3.1c0,0,1.6-0.8,2.3-1.6c1.6-0.8,2.3-1.6,4.7-1.6c1.6,0,3.1,0,4.7-0.8c2.3-0.8,5.5,0,5.5,1.6
		C198.1,161.8,197.4,162.6,192.7,164.9 M200.5,175.9c0,0-0.8-1.6-0.8-3.9v-3.1l2.3-0.8c2.3-0.8,8.6-0.8,10.9,0
		c1.6,0.8,1.6,0.8,0.8,2.3c-0.8,0.8-1.6,1.6-3.9,2.3s-4.7,1.6-5.5,2.3C202.8,176.6,201.3,176.6,200.5,175.9 M208.3,107.9
		c0-2.3,1.6-4.7,3.9-4.7c1.6,0,3.9,2.3,5.5,5.5c0.8,1.6,1.6,3.1,2.3,3.9c0.8,1.6,1.6,2.3,1.6,4.7c0,2.3,0,3.1,1.6,3.9
		c0.8,0.8,0.8,1.6,0.8,1.6s-0.8,0.8-2.3,0.8c-1.6,0-2.3,0-3.1-1.6c-0.8-0.8-3.1-3.9-5.5-7C209.1,110.2,208.3,109.4,208.3,107.9
		 M212.2,191.5c0,0-1.6-0.8-2.3-1.6c-2.3-1.6-2.3-1.6-1.6-2.3c0.8-0.8,0.8-0.8,0.8-1.6c0-0.8,0-0.8,0.8-1.6
		c0.8-0.8,10.9-3.9,11.7-3.9c0.8,0,1.6,0.8,2.3,1.6c1.6,0.8,1.6,0.8,0.8,1.6c-0.8,0-2.3,1.6-3.1,3.1c-1.6,1.6-3.9,3.1-5.5,3.9
		C213,190.7,212.2,191.5,212.2,191.5 M223.1,204.8c-3.1,2.3-4.7,2.3-5.5,0.8c0-0.8-0.8-1.6-1.6-1.6c0,0-0.8-0.8-0.8-1.6
		c0-0.8,4.7-5.5,7.8-7.8s6.3-2.3,7.8-0.8c0.8,0.8,0.8,0.8,0,2.3C230.2,198.5,226.3,202.4,223.1,204.8 M224.7,104.7
		c0.8-0.8,4.7-0.8,5.5,0l0.8,0.8c0,0,0.8,2.3,1.6,5.5c0.8,3.1,1.6,6.3,1.6,7l0.8,1.6h-1.6c-3.1,0-5.5-2.3-8.6-7.8
		C223.9,109.4,223.9,106.3,224.7,104.7 M239.6,223.5l-1.6,3.1h-2.3c-3.1,0-5.5-1.6-5.5-3.9c0-3.9,2.3-9.4,7-14.8
		c1.6-1.6,1.6-1.6,3.1-1.6c1.6,0,1.6,0,1.6,0.8C242.7,209.5,240.3,221.2,239.6,223.5 M248.2,118c-0.8,0-1.6,0.8-1.6,0.8
		s-5.5-6.3-6.3-7s-1.6-2.3-1.6-3.1s-0.8-2.3-1.6-3.1c-0.8-0.8-1.6-1.6-1.6-3.1c0-1.6,0.8-1.6,2.3-2.3c4.7-1.6,7.8-0.8,7.8,2.3
		c0,0.8,0.8,3.9,1.6,6.3c1.6,2.3,1.6,5.5,1.6,6.3C248.9,116.5,248.9,117.2,248.2,118 M250.5,91.5c0-3.1,0-3.9,0.8-3.9
		c0.8,0,1.6-0.8,1.6-0.8c0.8-0.8,1.6-0.8,1.6-0.8c1.6,0,3.9,1.6,4.7,3.1c0,0.8,0.8,2.3,0.8,3.1c0.8,3.1,0.8,20.3,0,21.1
		c-0.8,0.8-1.6,0.8-1.6,0c0,0-0.8-1.6-1.6-2.3c-1.6-1.6-2.3-2.3-3.1-6.3C251.3,99.3,250.5,95.4,250.5,91.5 M263,221.2l-1.6,1.6
		c-1.6,0.8-2.3,1.6-3.9,1.6s-1.6,0-2.3-1.6c-0.8-0.8-0.8-2.3-0.8-3.1c0-0.8,0.8-3.1,0.8-5.5c0-3.1,0.8-5.5,2.3-7.8
		c0-0.8,0.8-1.6,0.8-1.6l0.8-0.8c0.8,0,0.8,0.8,1.6,3.9c0.8,2.3,0.8,4.7,1.6,5.5c0,0.8,0.8,3.1,0.8,5.5
		C263,218.8,263,221.2,263,221.2z M283.3,220.4C282.5,221.2,282.5,221.2,283.3,220.4c-0.8,0.8-0.8,1.6-2.3,1.6c-2.3,0-2.3,0-3.1-2.3
		c-0.8-2.3-1.6-3.1-1.6-8.6c0-6.3,0-7,1.6-7c0.8,0,1.6,0,1.6,0.8c1.6,0.8,3.1,5.5,3.1,9.4c0,1.6,0,3.1,0.8,3.9
		C285.7,218.8,284.9,220.4,283.3,220.4 M285.7,102.4c-0.8,1.6-2.3,5.5-3.1,7.8c-0.8,3.1-1.6,4.7-2.3,5.5c-0.8,0.8-1.6,1.6-1.6,1.6
		l-0.8,0.8c-0.8,0-0.8-0.8-1.6-3.9c-0.8-4.7-0.8-6.3,0.8-11.7c0.8-2.3,0.8-4.7,0.8-5.5c0-1.6,0-1.6,1.6-2.3c1.6-0.8,2.3-0.8,5.5,0.8
		C288,96.9,288,97.7,285.7,102.4 M306,222c-0.8,1.6-0.8,1.6-2.3,1.6c-3.1,0-3.9-0.8-5.5-5.5c-2.3-6.3-3.9-13.3-3.1-14.1
		c0,0,1.6-0.8,2.3-0.8h2.3l1.6,3.9c3.1,6.3,5.5,11.7,5.5,12.5C306,220.4,306,221.2,306,222 M305.2,115.7c-0.8,0.8-2.3,2.3-2.3,3.1
		c-0.8,0.8-1.6,2.3-3.1,3.9c-1.6,2.3-3.1,2.3-3.1,1.6c0,0,0-0.8-0.8-0.8s-0.8,0,0.8-6.3c2.3-7,2.3-7.8,3.9-10.2
		c1.6-1.6,1.6-2.3,3.9-2.3c1.6,0,2.3,0,3.1,1.6c1.6,1.6,1.6,3.1,0.8,3.9c0,0.8-0.8,1.6-1.6,2.3C306.8,113.3,306,114.9,305.2,115.7
		 M307.5,129c0-3.9,3.1-10.9,7.8-16.4c2.3-3.1,2.3-3.1,4.7-3.1c1.6,0,2.3,0,3.1,1.6c0.8,1.6,1.6,1.6,0.8,4.7v3.1l-2.3,1.6
		c-1.6,0.8-3.9,3.1-6.3,5.5c-2.3,2.3-4.7,3.9-5.5,4.7C307.5,129.7,307.5,129.7,307.5,129 M334.9,126.6c-0.8,0-2.3,1.6-4.7,3.1
		c-1.6,1.6-3.9,3.1-5.5,3.1c-4.7,2.3-4.7,2.3-4.7,0.8c0-1.6,2.3-4.7,5.5-7.8c1.6-1.6,3.1-3.9,3.9-5.5c1.6-1.6,2.3-3.1,2.3-3.1
		s1.6,0.8,3.1,1.6c2.3,1.6,2.3,1.6,2.3,3.1C338.8,123.5,337.2,125.1,334.9,126.6 M341.9,130.5c1.6-1.6,3.9-2.3,3.9-3.1
		c0.8-0.8,3.9-0.8,5.5,0.8c1.6,0.8,1.6,1.6,1.6,2.3c-0.8,3.9-3.1,5.5-10.2,7.8c-2.3,0.8-5.5,1.6-6.3,2.3c-1.6,0.8-3.1,1.6-3.9,1.6
		s-1.6,0-1.6-1.6c0-0.8,0.8-2.3,3.9-4.7C336.5,134.4,339.6,132.1,341.9,130.5 M326.3,212.6c-0.8,1.6-1.6,1.6-5.5,0.8
		c-1.6-0.8-2.3-0.8-6.3-4.7c-2.3-2.3-4.7-5.5-5.5-7c-1.6-2.3-1.6-3.1-1.6-5.5v-2.3h2.3c1.6,0,2.3,0,2.3,1.6c0.8,0.8,1.6,1.6,3.9,2.3
		c2.3,0.8,3.9,1.6,5.5,3.9c1.6,1.6,3.1,3.1,4.7,3.9c1.6,1.6,1.6,1.6,1.6,3.9C327.9,211,327.1,211.8,326.3,212.6 M332.6,191.5
		c-0.8,1.6-0.8,1.6-3.1,1.6s-3.9-0.8-6.3-3.1c-0.8-0.8-2.3-2.3-3.9-3.1c-0.8-0.8-2.3-1.6-3.1-2.3c-0.8-0.8-1.6-1.6-1.6-1.6
		c-0.8,0-0.8-0.8-0.8-1.6v-1.6h3.9c3.1,0,3.9,0,5.5,1.6c0.8,0.8,3.9,1.6,5.5,2.3c3.1,0.8,3.1,1.6,3.9,2.3
		C333.3,186.8,333.3,189.1,332.6,191.5 M344.3,177.4c0,0-0.8,0-1.6,0.8l-0.8,0.8c-0.8,0-10.2-5.5-13.3-7c-1.6-0.8-3.1-2.3-3.9-3.9
		l-1.6-2.3l1.6-1.6c1.6-1.6,2.3-1.6,2.3-0.8c0,0.8,1.6,1.6,4.7,2.3c2.3,0.8,5.5,1.6,6.3,2.3c1.6,0.8,2.3,1.6,3.1,1.6
		c0.8,0,1.6,0.8,1.6,0.8C345.1,172.7,345.1,177.4,344.3,177.4 M359.9,154h-1.6c-0.8,0-1.6,0-1.6,0.8c-0.8,0.8-14.8,0.8-18.8,0
		c-4.7-1.6-4.7-1.6-1.6-3.9c3.1-2.3,11.7-4.7,15.6-5.5c3.1,0,3.9,0,5.5,0.8l2.3,1.6v3.1C359.9,150.8,359.9,154,359.9,154z
		 M373.2,73.5c-3.9-1.6-8.6-3.9-11.7-4.7c-2.3-0.8-7-2.3-9.4-3.1c-6.3-2.3-13.3-4.7-18.8-5.5c-2.3,0-6.3-1.6-8.6-1.6
		c-3.9-0.8-15.6-3.1-26.6-4.7c-2.3,0-6.3-0.8-9.4-1.6c-6.3-1.6-12.5-2.3-18.8-2.3c-3.1,0-7.8-0.8-11.7-0.8
		c-20.3-3.1-18.8-2.3-33.6-2.3c-8.6,0-16.4,0-20.3,0.8c-3.1,0-10.9,1.6-17.2,1.6c-10.2,0.8-11.7,1.6-18,3.1
		c-3.9,0.8-9.4,2.3-11.7,3.1c-7,1.6-7,1.6-14.1,3.9c-7,2.3-15.6,7-29.7,14.8c-9.4,5.5-10.9,6.3-14.8,10.2
		c-8.6,8.6-16.4,21.1-21.1,32c0.8,3.1-0.8,6.3-0.8,7c0,0.8-0.8,1.6-0.8,2.3c0,0.8-0.8,1.6-1.6,2.3c-1.6,0.8-2.3,1.6-3.9,1.6
		c-2.3,0-3.1-0.8-5.5-4.7c-0.8-1.6-0.8-1.6-0.8-7c0.8-5.5,3.1-14.1,6.3-21.9c4.7-11.7,15.6-22.7,33.6-35.2c7-4.7,7.8-4.7,18-9.4
		c7-3.1,23.4-9.4,28.1-10.2c1.6,0,10.2-2.3,18-3.9l14.8-3.1h62.5l14.8,1.6c7.8,0.8,16.4,2.3,18.8,2.3c2.3,0,7.8,1.6,11.7,2.3
		c12.5,3.1,17.2,4.7,24.2,5.5c8.6,1.6,20.3,5.5,29.7,9.4c3.9,1.6,10.9,4.7,14.8,5.5c5.5,2.3,7.8,3.1,11.7,5.5
		c4.7,3.1,12.5,8.6,12.5,8.6C381.8,77.4,381,76.6,373.2,73.5"/>
	<path class="st2" d="M340.4,290.7c-3.9,0-10.2-0.8-14.8-0.8c-6.3,0-9.4,0-14.8-1.6c-3.9-0.8-10.9-1.6-15.6-1.6
		c-6.3-0.8-10.9-1.6-18-2.3c-5.5-0.8-12.5-2.3-17.2-3.1c-4.7-0.8-10.2-1.6-14.1-3.1c-3.9-0.8-10.9-3.1-16.4-4.7
		c-8.6-2.3-21.9-7.8-35.2-13.3c-3.1-1.6-8.6-4.7-13.3-7c-4.7-2.3-10.9-6.3-14.1-8.6c-15.6-8.6-46.1-29.7-59.4-40.6
		c-4.7-3.9-10.9-9.4-14.1-11.7c-5.5-4.7-6.3-5.5-10.9-11.7c-4.7-7-5.5-7-7.8-14.1c-1.6-3.9-2.3-7.8-2.3-7.8s-0.8-3.1-1.6-4.7
		l-1.6-4.7v-8.6c0-9.4,0-10.9,2.3-10.9c0.8,0,2.3-0.8,3.1-1.6c1.6-0.8,1.6-1.6,1.6-2.3c0-0.8,0-1.6,0.8-2.3c0-0.8,1.6-3.9,2.3-7
		c3.9-10.9,11.7-24.2,21.1-32c3.9-3.9,4.7-4.7,14.8-10.2c14.1-7.8,22.7-12.5,29.7-14.8c7-3.1,7-3.1,14.1-3.9
		c3.1-0.8,8.6-1.6,11.7-3.1c6.3-1.6,7.8-2.3,18-3.1c6.3-0.8,14.1-1.6,17.2-1.6c3.9,0,10.9-0.8,20.3-0.8c14.8,0,13.3,0,33.6,2.3
		c3.9,0.8,8.6,0.8,11.7,0.8c6.3,0,13.3,0.8,18.8,2.3c2.3,0.8,6.3,1.6,9.4,1.6c10.9,1.6,22.7,3.1,26.6,4.7c2.3,0.8,6.3,1.6,8.6,1.6
		c7.8,1.6,12.5,2.3,21.9,7.8c4.7,2.3,11.7,6.3,14.8,7.8c3.1,1.6,7.8,3.9,10.2,5.5c7,3.1,13.3,6.3,18,9.4c2.3,1.6,5.5,3.1,7,4.7
		c1.6,0.8,4.7,2.3,6.3,3.1c2.3,1.6,3.1,1.6,4.7,1.6c1.6,0,3.9,0.8,10.9,3.1c7.8,3.1,8.6,3.1,15.6,7.8c10.2,7,17.2,13.3,27.4,24.2
		c6.3,7,16.4,23.4,20.3,33.6c1.6,4.7,2.3,4.7,2.3,8.6c0,3.9,0,5.5-3.1,14.1c-3.9,13.3-9.4,26.6-16.4,39.1
		c-4.7,8.6-6.3,10.2-11.7,17.2c-7.8,9.4-14.8,16.4-25,24.2c-6.3,4.7-7.8,5.5-14.1,7.8c-7,3.1-17.2,6.3-22.7,7
		c-1.6,0-10.2,0.8-18.8,2.3C362.2,291.5,352.9,291.5,340.4,290.7 M239.6,224.3c0.8-2.3,3.9-14.1,3.9-16.4c0-0.8,0-0.8-2.3-0.8
		s-3.1,0.8-6.3,6.3c-2.3,3.9-3.9,7-3.9,10.2c0,1.6,0,1.6,1.6,2.3c0.8,0,1.6,0.8,1.6,1.6c0.8,0.8,1.6,0.8,2.3,0.8
		C238,227.4,238,227.4,239.6,224.3 M261.4,222l1.6-1.6v-3.1c0-2.3-0.8-4.7-1.6-7.8c-0.8-2.3-1.6-5.5-1.6-5.5c0-0.8-1.6-0.8-1.6,0
		c0,0-0.8,0.8-0.8,1.6c-1.6,2.3-2.3,4.7-2.3,7.8c0,2.3-0.8,4.7-0.8,5.5c0,0.8,0,2.3,0.8,3.1c0.8,1.6,0.8,1.6,2.3,1.6
		C258.3,223.5,259.9,222.7,261.4,222 M306,221.2c0.8-1.6,0.8-2.3-0.8-5.5c-0.8-1.6-2.3-5.5-3.9-7.8l-2.3-4.7h-2.3
		c-1.6,0-2.3,0-2.3,0.8c0,0.8,1.6,8.6,3.1,14.8c1.6,3.9,1.6,4.7,5.5,4.7C305.2,223.5,305.2,223.5,306,221.2 M284.1,221.2
		c1.6-1.6,1.6-3.1,0.8-3.9c-0.8-0.8-0.8-2.3-0.8-3.9c0-5.5-2.3-9.4-5.5-9.4c-1.6,0-1.6,0.8-1.6,7.8c0,5.5,0,6.3,0.8,8.6
		c0.8,2.3,0.8,2.3,3.1,2.3C282.5,222,282.5,222,284.1,221.2 M326.3,212.6c0.8-0.8,0.8-2.3,0.8-3.9c0-2.3,0-2.3-1.6-3.1
		c-0.8-0.8-3.1-2.3-4.7-3.9c-2.3-2.3-3.9-3.1-6.3-3.9c-2.3-0.8-3.1-1.6-3.1-2.3c-0.8-0.8-0.8-1.6-2.3-1.6h-2.3v3.1
		c0,3.1,0.8,4.7,3.9,8.6c5.5,6.3,7,7.8,9.4,8.6C324.7,214.1,325.5,214.1,326.3,212.6 M223.1,204.8c3.1-2.3,7-6.3,7.8-8.6
		c0.8-1.6,0.8-1.6,0-2.3c-1.6-1.6-3.9-1.6-7.8,0.8c-3.1,2.3-7.8,6.3-7.8,7.8c0,0.8,0,0.8,0.8,1.6c0,0,0.8,0.8,1.6,1.6
		C218.5,207.9,220,207.1,223.1,204.8 M332.6,191.5c0.8-3.1,0.8-3.9,0.8-4.7c0-0.8-0.8-0.8-0.8-1.6c0,0-1.6-1.6-3.9-1.6
		c-1.6-0.8-3.9-1.6-5.5-2.3c-1.6-0.8-2.3-1.6-5.5-1.6h-3.9v1.6c0,0.8,0,1.6,0.8,1.6c0,0,1.6,0.8,2.3,1.6c2.3,2.3,5.5,4.7,7.8,6.3
		c1.6,1.6,2.3,1.6,4.7,1.6h2.3L332.6,191.5z M214.6,189.9c1.6-0.8,3.1-2.3,4.7-3.9c1.6-1.6,3.1-2.3,3.1-3.1c0.8-0.8,0.8-0.8-0.8-1.6
		c-0.8-0.8-1.6-0.8-2.3-1.6c-1.6,0-10.9,3.1-11.7,3.9c-0.8,0-0.8,0.8-0.8,1.6s0,0.8-0.8,0.8l-0.8,0.8c0,0.8,3.9,3.9,4.7,3.9
		C212.2,191.5,213.8,190.7,214.6,189.9 M342.7,178.2c0,0,0.8-0.8,1.6-0.8c0.8,0,0.8-0.8,0.8-2.3c0-2.3-0.8-3.9-1.6-3.9
		c0,0-1.6-0.8-3.1-1.6c-2.3-1.6-3.1-2.3-8.6-3.1c-3.1-0.8-3.9-1.6-3.9-1.6c0-1.6-0.8-0.8-2.3,0.8l-1.6,1.6l1.6,2.3
		c1.6,2.3,4.7,4.7,10.9,7.8C341.1,179,341.9,179.8,342.7,178.2 M205.2,175.1c0.8-0.8,2.3-1.6,3.1-1.6c3.9-0.8,5.5-1.6,5.5-3.1
		c0.8-1.6,0.8-1.6-0.8-2.3c-1.6-0.8-7.8-0.8-10.9,0l-2.3,0.8v3.1c0,3.9,0.8,4.7,2.3,4.7C202.8,176.6,203.6,175.9,205.2,175.1
		 M188,168c0.8-0.8,3.1-1.6,4.7-2.3c4.7-2.3,6.3-3.9,6.3-5.5c0-0.8,0-1.6-1.6-1.6c-2.3-0.8-3.1-0.8-4.7-0.8c-0.8,0-3.1,0.8-4.7,0.8
		c-2.3,0-3.1,0-4.7,1.6c-0.8,0.8-2.3,1.6-2.3,1.6s0,1.6,0,3.1c0,2.3,0,3.1,0.8,3.1c0.8,0,1.6,0,1.6,0.8
		C185.6,169.6,185.6,169.6,188,168 M356.8,154.8c0,0,0.8-0.8,1.6-0.8h1.6v-3.1v-3.1l-1.6-1.6c-1.6-1.6-2.3-1.6-5.5-0.8
		c-4.7,0-11.7,2.3-15.6,4.7c-3.9,2.3-3.9,3.1,0.8,3.9C341.9,155.5,356,155.5,356.8,154.8 M192.7,150.8c1.6-0.8,3.1-1.6,4.7-2.3
		l1.6-0.8l-1.6-1.6c-2.3-2.3-3.1-2.3-8.6-2.3c-3.9,0-4.7,0-6.3,0.8c-1.6,0.8-1.6,0.8-1.6,2.3c0,0.8,0,2.3,0.8,2.3
		c0,0,0.8,0.8,0.8,1.6v1.6h3.9C189.5,152.4,190.3,152.4,192.7,150.8 M335.7,140.7c0.8-0.8,3.1-1.6,5.5-2.3
		c3.9-0.8,10.2-3.9,10.2-4.7c0,0,0-0.8,0.8-1.6c0-0.8,0.8-1.6,0.8-2.3c0-1.6-3.1-3.1-4.7-3.1c-2.3,0-7.8,3.9-12.5,8.6
		c-3.1,3.1-3.9,3.9-3.9,4.7s0,1.6,1.6,1.6C333.3,142.2,334.9,141.5,335.7,140.7 M191.1,136.8c2.3-1.6,2.3-1.6,0.8-3.1
		c-0.8-0.8-2.3-1.6-4.7-3.1c-3.1-2.3-3.9-2.3-7.8-3.9c-6.3-1.6-7-1.6-9.4,0.8c-0.8,0.8-1.6,2.3-1.6,2.3s0.8,1.6,2.3,2.3
		c2.3,2.3,2.3,2.3,7.8,3.1c1.6,0,3.1,0.8,3.9,0.8C183.3,137.6,189.5,137.6,191.1,136.8 M324.7,132.9c2.3-0.8,5.5-3.1,7-3.9
		c1.6-1.6,3.1-2.3,3.1-2.3s0.8-0.8,2.3-1.6c2.3-2.3,2.3-3.1,0-4.7c-2.3-1.6-4.7-2.3-5.5-2.3c0,0-1.6,1.6-2.3,3.1
		c-0.8,1.6-3.1,3.9-3.9,5.5c-3.1,3.9-5.5,7-5.5,7.8C320,135.2,320.8,135.2,324.7,132.9 M309.9,129c0.8,0,3.1-2.3,5.5-3.9
		c2.3-2.3,4.7-3.9,6.3-4.7l2.3-1.6v-3.1c0-3.1,0-3.1-0.8-4.7c-0.8-0.8-1.6-1.6-3.1-1.6c-2.3,0-2.3,0-4.7,3.1c-4.7,6.3-7,11.7-7,15.6
		C307.5,129.7,307.5,129.7,309.9,129 M205.2,123.5c0.8-0.8,0-1.6-0.8-3.9c-0.8-1.6-3.1-4.7-5.5-7.8c-3.9-5.5-3.9-5.5-6.3-5.5
		c-1.6,0-2.3,0-3.9,0.8c-1.6,0.8-1.6,1.6-1.6,3.1c0,1.6,0,2.3,1.6,3.1c0.8,0.8,1.6,1.6,2.3,1.6c0,0,0.8,0.8,1.6,1.6
		c0,0.8,1.6,1.6,2.3,2.3c0.8,0.8,2.3,2.3,3.9,3.1c1.6,1.6,4.7,3.1,6.3,3.1C204.4,124.3,205.2,124.3,205.2,123.5 M299.7,122.7
		c1.6-1.6,2.3-3.1,3.1-3.9c0.8-0.8,1.6-2.3,2.3-3.1c0.8-0.8,0.8-0.8,0.8-1.6c0,0,0.8-1.6,1.6-3.1c0.8-2.3,0.8-2.3,0.8-3.9
		c-0.8-2.3-1.6-2.3-3.9-2.3c-2.3,0-2.3,0-3.9,2.3c-1.6,2.3-2.3,4.7-4.7,11.7c-0.8,3.1-0.8,3.9-0.8,3.9l0.8,0.8
		C295.8,125.1,298.2,124.3,299.7,122.7 M223.1,122.7c0,0,0-0.8-0.8-1.6c-0.8-0.8-1.6-1.6-1.6-3.9s0-3.1-0.8-3.9
		c-0.8-0.8-1.6-2.3-2.3-3.9c-3.1-5.5-5.5-7-7.8-4.7c-1.6,1.6-1.6,4.7,0,6.3c0.8,0.8,2.3,3.1,3.9,5.5c1.6,2.3,3.1,4.7,4.7,5.5
		c1.6,1.6,1.6,1.6,3.1,1.6C221.6,122.7,222.4,122.7,223.1,122.7 M234.9,118c0-0.8-0.8-3.9-1.6-7c-0.8-3.1-1.6-5.5-1.6-5.5
		s-0.8,0-0.8-0.8c-0.8-0.8-4.7-0.8-5.5,0c-0.8,0.8-0.8,3.9,0.8,6.3c2.3,4.7,6.3,8.6,8.6,8.6h1.6L234.9,118z M248.2,118
		c0.8-0.8,0.8-0.8,0.8-2.3c0-0.8-0.8-3.9-1.6-6.3c-0.8-2.3-1.6-4.7-1.6-6.3c-0.8-3.1-0.8-3.1-2.3-3.9c-1.6-0.8-4.7,0-7,1.6
		c-1.6,0.8-1.6,3.1,0,4.7c0.8,0.8,1.6,2.3,1.6,3.1c0.8,0.8,0.8,2.3,1.6,3.1c0.8,1.6,6.3,7,6.3,7C246.6,118,247.4,118,248.2,118
		 M279.4,116.5c1.6-2.3,1.6-2.3,3.1-6.3c0.8-3.1,2.3-7.8,4.7-10.9c1.6-2.3,0.8-2.3-2.3-3.9c-3.1-1.6-3.9-1.6-6.3-0.8
		c-1.6,0.8-1.6,0.8-1.6,2.3c0,0.8-0.8,3.1-1.6,6.3c-1.6,5.5-1.6,7-0.8,11.7C277.1,118.8,277.8,118.8,279.4,116.5 M259.9,112.6
		c0.8-0.8,0.8-18,0-21.9c-0.8-2.3-0.8-3.1-2.3-3.9c-2.3-1.6-3.1-1.6-4.7,0c-0.8,0.8-1.6,1.6-1.6,1.6c-0.8,0-0.8,6.3,0,10.2
		c0,1.6,0.8,3.9,1.6,6.3c0.8,3.1,1.6,4.7,3.1,6.3c0.8,0.8,2.3,2.3,2.3,2.3C258.3,113.3,259.1,113.3,259.9,112.6"/>
	<path class="st2" d="M48.1,221.2c-3.1-7-7.8-25.8-7.8-30.5c0-1.6,0-3.1-0.8-3.9c0-0.8-0.8-3.1-0.8-5.5c-0.8-6.3-0.8-26.6,0-31.3
		c0-2.3,0.8-5.5,0.8-6.3c0-1.6,0.8-4.7,1.6-7.8c0.8-2.3,1.6-6.3,1.6-7.8c0-1.6,1.6-6.3,2.3-9.4c0.8-3.1,2.3-7,2.3-7.8
		s0.8-2.3,0.8-2.3c0-0.8,1.6-4.7,3.9-9.4c4.7-11.7,15.6-30.5,21.1-35.9c3.1-3.1,7.8-6.3,7.8-5.5c0,0.8,0,0.8,2.3,0
		c1.6-0.8,3.1-0.8,3.9-1.6c0.8-0.8,2.3-0.8,2.3-0.8c0.8,0,1.6-0.8,3.1-1.6c1.6-0.8,3.1-2.3,4.7-2.3c1.6-0.8,5.5-2.3,9.4-4.7
		c3.9-2.3,9.4-3.9,10.9-4.7c2.3-0.8,5.5-2.3,7.8-3.1c2.3-0.8,5.5-2.3,7.8-3.1c1.6-0.8,3.9-1.6,4.7-1.6c0.8,0,3.1-0.8,5.5-1.6
		c2.3-0.8,4.7-0.8,4.7-0.8c3.1-0.8,4.7-0.8,5.5-0.8s-7,3.1-13.3,3.9c-3.1,0.8-7.8,2.3-10.9,3.9c-3.1,1.6-7.8,3.1-10.2,4.7
		c-3.1,0.8-7.8,3.1-10.2,4.7c-3.1,1.6-7,3.9-9.4,4.7c-5.5,2.3-10.2,6.3-20.3,14.8c-8.6,7-9.4,8.6-16.4,21.1
		c-7,13.3-10.9,23.4-14.8,43.8c-2.3,11.7-2.3,12.5-3.1,23.4c0,6.3-0.8,19.5-0.8,29.7c0,14.8,0,19.5,0.8,27.4
		c0.8,5.5,0.8,9.4,0.8,9.4C48.9,222,48.9,221.2,48.1,221.2"/>
	<path class="st3" d="M340.4,290.7c-3.9,0-10.2-0.8-14.8-0.8c-6.3,0-9.4,0-14.8-1.6c-3.9-0.8-10.9-1.6-15.6-1.6
		c-6.3-0.8-10.9-1.6-18-2.3c-5.5-0.8-12.5-2.3-17.2-3.1c-4.7-0.8-10.2-1.6-14.1-3.1c-3.9-0.8-10.9-3.1-16.4-4.7
		c-8.6-2.3-21.9-7.8-35.2-13.3c-3.1-1.6-8.6-4.7-13.3-7c-4.7-2.3-10.9-6.3-14.1-8.6c-15.6-8.6-46.1-29.7-59.4-40.6
		c-4.7-3.9-10.9-9.4-14.1-11.7c-5.5-4.7-6.3-5.5-10.9-11.7c-4.7-7-5.5-7-7.8-14.1c-1.6-3.9-2.3-7.8-2.3-7.8s-0.8-3.1-1.6-4.7
		l-1.6-4.7v-7.8c0-9.4,0.8-11.7,2.3-11.7c0.8,0,2.3-0.8,3.1-1.6c1.6-0.8,1.6-1.6,1.6-2.3c0-0.8,0-1.6,0.8-2.3c0-0.8,1.6-3.9,2.3-7
		c3.9-10.9,11.7-24.2,21.1-32c3.9-3.9,4.7-4.7,14.8-10.2c20.3-11.7,33.6-17.2,39.9-18.8c8.6-1.6,10.9-2.3,18.8-4.7
		c3.1-0.8,6.3-1.6,15.6-2.3c6.3-0.8,14.1-1.6,17.2-1.6c3.9,0,10.9-0.8,20.3-0.8c14.8,0,13.3,0,33.6,2.3c3.9,0.8,8.6,0.8,11.7,0.8
		c6.3,0,13.3,0.8,18.8,2.3c2.3,0.8,7,1.6,10.2,2.3c3.1,0.8,6.3,0.8,7,0.8c0.8,0,3.9,0.8,7.8,0.8c3.1,0.8,7.8,1.6,10.2,2.3
		c2.3,0.8,6.3,1.6,8.6,1.6c7.8,0.8,12.5,3.1,22.7,7.8c5.5,2.3,11.7,6.3,14.1,7.8c3.1,1.6,7,3.9,9.4,4.7c6.3,3.1,12.5,6.3,18,9.4
		c2.3,1.6,6.3,3.9,8.6,4.7c2.3,0.8,4.7,2.3,5.5,3.1c1.6,0.8,2.3,0.8,3.9,0.8c1.6,0,4.7,0.8,10.9,3.1c7.8,3.1,8.6,3.1,15.6,7.8
		c14.1,9.4,27.4,23.4,35.9,36.7c6.3,9.4,9.4,15.6,11.7,21.9c1.6,4.7,2.3,4.7,2.3,8.6s0,5.5-3.1,14.1c-3.9,13.3-9.4,26.6-16.4,39.1
		c-4.7,8.6-6.3,10.2-11.7,17.2c-7.8,9.4-14.8,16.4-25,24.2c-6.3,4.7-7.8,5.5-14.1,7.8c-7,3.1-17.2,6.3-22.7,7
		c-1.6,0-10.2,0.8-18.8,2.3C362.2,291.5,352.9,291.5,340.4,290.7 M239.6,224.3c0.8-2.3,3.9-14.1,3.9-16.4c0-0.8,0-0.8-2.3-0.8
		s-3.1,0.8-6.3,6.3c-2.3,3.9-3.9,7-3.9,10.2c0,1.6,0,1.6,1.6,2.3c0.8,0,1.6,0.8,1.6,1.6c0.8,0.8,1.6,0.8,2.3,0.8
		C238,227.4,238,227.4,239.6,224.3 M261.4,222l1.6-1.6v-3.1c0-2.3-0.8-4.7-1.6-7.8c-0.8-2.3-1.6-5.5-1.6-5.5c0-0.8-1.6-0.8-1.6,0
		c0,0-0.8,0.8-0.8,1.6c-1.6,2.3-2.3,4.7-2.3,7.8c0,2.3-0.8,4.7-0.8,5.5c0,0.8,0,2.3,0.8,3.1c0.8,1.6,0.8,1.6,2.3,1.6
		C258.3,223.5,259.9,222.7,261.4,222 M306,221.2c0.8-1.6,0.8-2.3-0.8-5.5c-0.8-1.6-2.3-5.5-3.9-7.8l-2.3-4.7h-2.3
		c-1.6,0-2.3,0-2.3,0.8c0,0.8,1.6,8.6,3.1,14.8c1.6,3.9,1.6,4.7,5.5,4.7C305.2,223.5,305.2,223.5,306,221.2 M284.1,221.2
		c1.6-1.6,1.6-3.1,0.8-3.9c-0.8-0.8-0.8-2.3-0.8-3.9c0-5.5-2.3-9.4-5.5-9.4c-1.6,0-1.6,0.8-1.6,7.8c0,5.5,0,6.3,0.8,8.6
		c0.8,2.3,0.8,2.3,3.1,2.3C282.5,222,282.5,222,284.1,221.2 M326.3,212.6c0.8-0.8,0.8-2.3,0.8-3.9c0-2.3,0-2.3-1.6-3.1
		c-0.8-0.8-3.1-2.3-4.7-3.9c-2.3-2.3-3.9-3.1-6.3-3.9c-2.3-0.8-3.1-1.6-3.1-2.3c-0.8-0.8-0.8-1.6-2.3-1.6h-2.3v3.1
		c0,3.1,0.8,4.7,3.9,8.6c5.5,6.3,7,7.8,9.4,8.6C324.7,214.1,325.5,214.1,326.3,212.6 M223.1,204.8c3.1-2.3,7-6.3,7.8-8.6
		c0.8-1.6,0.8-1.6,0-2.3c-1.6-1.6-3.9-1.6-7.8,0.8c-3.1,2.3-7.8,6.3-7.8,7.8c0,0.8,0,0.8,0.8,1.6c0,0,0.8,0.8,1.6,1.6
		C218.5,207.9,220,207.1,223.1,204.8 M332.6,191.5c0.8-3.1,0.8-3.9,0.8-4.7c0-0.8-0.8-0.8-0.8-1.6c0,0-1.6-1.6-3.9-1.6
		c-1.6-0.8-4.7-1.6-5.5-2.3c-2.3-1.6-2.3-1.6-5.5-1.6h-3.1v2.3c0,1.6,0,2.3,0.8,2.3c0,0,1.6,0.8,2.3,1.6c2.3,2.3,5.5,4.7,7.8,6.3
		c1.6,1.6,2.3,1.6,4.7,1.6h2.3L332.6,191.5z M214.6,189.9c1.6-0.8,3.1-2.3,4.7-3.9c1.6-1.6,3.1-2.3,3.1-3.1c0.8-0.8,0.8-0.8-0.8-1.6
		c-0.8-0.8-1.6-0.8-2.3-1.6c-1.6,0-10.9,3.1-11.7,3.9c-0.8,0-0.8,0.8-0.8,1.6s0,0.8-0.8,0.8l-0.8,0.8c0,0.8,3.9,3.9,4.7,3.9
		C212.2,191.5,213.8,190.7,214.6,189.9 M342.7,178.2c0,0,0.8-0.8,1.6-0.8c0.8,0,0.8-0.8,0.8-2.3c0-2.3-0.8-3.9-1.6-3.9
		c0,0-1.6-0.8-3.1-1.6c-2.3-1.6-3.1-2.3-8.6-3.1c-3.1-0.8-3.9-1.6-3.9-1.6c0-1.6-0.8-0.8-2.3,0.8l-1.6,1.6l1.6,2.3
		c1.6,2.3,4.7,4.7,10.9,7.8C341.1,179,341.9,179.8,342.7,178.2 M205.2,175.1c0.8-0.8,2.3-1.6,3.1-1.6c3.9-0.8,5.5-1.6,5.5-3.1
		c0.8-1.6,0.8-1.6-0.8-2.3c-1.6-0.8-7.8-0.8-10.9,0l-2.3,0.8v3.1c0,3.9,0.8,4.7,2.3,4.7C202.8,176.6,203.6,175.9,205.2,175.1
		 M188,168c0.8-0.8,3.1-1.6,4.7-2.3c4.7-2.3,6.3-3.9,6.3-5.5c0-0.8,0-1.6-1.6-1.6c-2.3-0.8-3.1-0.8-4.7-0.8c-0.8,0-3.1,0.8-4.7,0.8
		c-2.3,0-3.1,0-4.7,1.6c-0.8,0.8-2.3,1.6-2.3,1.6s0,1.6,0,3.1c0,2.3,0,3.1,0.8,3.1c0.8,0,1.6,0,1.6,0.8
		C185.6,169.6,185.6,169.6,188,168 M356.8,154.8c0,0,0.8-0.8,1.6-0.8h1.6v-3.1v-3.1l-1.6-1.6c-1.6-1.6-2.3-1.6-5.5-0.8
		c-4.7,0-11.7,2.3-15.6,4.7c-3.9,2.3-3.9,3.1,0.8,3.9C341.9,155.5,356,155.5,356.8,154.8 M192.7,150.8c1.6-0.8,3.1-1.6,4.7-2.3
		l1.6-0.8l-1.6-1.6c-2.3-2.3-3.1-2.3-8.6-2.3c-3.9,0-4.7,0-6.3,0.8c-1.6,0.8-1.6,0.8-1.6,2.3c0,0.8,0,2.3,0.8,2.3
		c0,0,0.8,0.8,0.8,1.6v1.6h3.9C189.5,152.4,190.3,152.4,192.7,150.8 M335.7,140.7c0.8-0.8,3.1-1.6,5.5-2.3
		c3.9-0.8,10.2-3.9,10.2-4.7c0,0,0-0.8,0.8-1.6c0-0.8,0.8-1.6,0.8-2.3c0-1.6-3.1-3.1-4.7-3.1c-3.1,0-16.4,10.9-16.4,14.1
		c0,0.8,0,1.6,1.6,1.6C333.3,142.2,334.9,141.5,335.7,140.7 M191.1,136.8c2.3-1.6,2.3-1.6,0.8-3.1c-0.8-0.8-2.3-1.6-4.7-3.1
		c-3.1-2.3-3.9-2.3-7.8-3.9c-6.3-1.6-7-1.6-9.4,0.8c-0.8,0.8-1.6,2.3-1.6,2.3s0.8,1.6,2.3,2.3c2.3,2.3,2.3,2.3,7.8,3.1
		c1.6,0,3.1,0.8,3.9,0.8C183.3,137.6,189.5,137.6,191.1,136.8 M324.7,132.9c2.3-0.8,5.5-3.1,7-3.9c1.6-1.6,3.1-2.3,3.1-2.3
		s0.8-0.8,2.3-1.6c2.3-2.3,2.3-3.1,0-4.7c-2.3-1.6-4.7-2.3-5.5-2.3c0,0-1.6,1.6-2.3,3.1c-0.8,1.6-3.1,3.9-3.9,5.5
		c-3.1,3.9-5.5,7-5.5,7.8C320,135.2,320.8,135.2,324.7,132.9 M309.9,129c0.8,0,3.1-2.3,5.5-3.9c2.3-2.3,4.7-3.9,6.3-4.7l2.3-1.6
		v-3.1c0-3.1,0-3.1-0.8-4.7c-0.8-0.8-1.6-1.6-3.1-1.6c-2.3,0-2.3,0-4.7,3.1c-4.7,6.3-7,11.7-7,15.6
		C307.5,129.7,307.5,129.7,309.9,129 M205.2,123.5c0.8-0.8,0-1.6-0.8-3.9c-0.8-1.6-3.1-4.7-5.5-7.8c-3.9-5.5-3.9-5.5-6.3-5.5
		c-1.6,0-2.3,0-3.9,0.8c-1.6,0.8-1.6,1.6-1.6,3.1c0,1.6,0,2.3,1.6,3.1c0.8,0.8,1.6,1.6,2.3,1.6c0,0,0.8,0.8,1.6,1.6
		c0,0.8,1.6,1.6,2.3,2.3c0.8,0.8,2.3,2.3,3.9,3.1c2.3,1.6,3.9,3.1,6.3,3.1C204.4,124.3,205.2,124.3,205.2,123.5 M299.7,122.7
		c1.6-1.6,2.3-3.1,3.1-3.9c0.8-0.8,1.6-2.3,2.3-3.1c0.8-0.8,0.8-0.8,0.8-1.6c0,0,0.8-1.6,1.6-3.1c0.8-2.3,0.8-2.3,0.8-3.9
		c-0.8-2.3-1.6-2.3-3.9-2.3c-2.3,0-2.3,0-3.9,2.3c-1.6,2.3-2.3,4.7-4.7,11.7c-0.8,3.1-0.8,3.9-0.8,3.9l0.8,0.8
		C295.8,125.1,298.2,124.3,299.7,122.7 M223.1,122.7c0,0,0-0.8-0.8-1.6c-0.8-0.8-1.6-1.6-1.6-3.9s0-3.1-0.8-3.9
		c-0.8-0.8-1.6-2.3-2.3-3.9c-3.1-5.5-5.5-7-7.8-4.7c-1.6,1.6-1.6,4.7,0,6.3c0.8,0.8,2.3,3.1,3.9,5.5c1.6,2.3,3.1,4.7,4.7,5.5
		c1.6,1.6,1.6,1.6,3.1,1.6C221.6,122.7,222.4,122.7,223.1,122.7 M234.9,118c-0.8-0.8-2.3-7-3.1-10.9c0-0.8-0.8-1.6-0.8-1.6
		s-0.8,0-1.6-0.8c-0.8-0.8-4.7-0.8-5.5,0c-0.8,0.8-0.8,3.9,0.8,6.3c2.3,4.7,6.3,8.6,8.6,8.6C235.7,119.6,235.7,119.6,234.9,118
		 M248.2,118c0.8-0.8,0.8-0.8,0.8-2.3c0-0.8-0.8-3.9-1.6-6.3c-0.8-2.3-1.6-4.7-1.6-6.3c-0.8-3.1-0.8-3.1-2.3-3.9
		c-1.6-0.8-4.7,0-7,1.6c-1.6,0.8-1.6,3.1,0,4.7c0.8,0.8,1.6,2.3,1.6,3.1c0.8,0.8,0.8,2.3,1.6,3.1c0.8,1.6,6.3,7,6.3,7
		C246.6,118,247.4,118,248.2,118 M279.4,116.5c1.6-2.3,1.6-2.3,3.1-6.3c0.8-3.1,2.3-7.8,4.7-10.9c1.6-2.3,0.8-2.3-2.3-3.9
		c-3.1-1.6-3.9-1.6-6.3-0.8c-1.6,0.8-1.6,0.8-1.6,2.3c0,0.8-0.8,3.1-1.6,6.3c-1.6,5.5-1.6,7.8-0.8,10.9c0,0.8,0.8,2.3,0.8,3.1
		C277.1,118.8,277.8,118.8,279.4,116.5 M259.9,112.6c0.8-0.8,0.8-18,0-21.9c-0.8-2.3-0.8-3.1-2.3-3.9c-2.3-1.6-3.1-1.6-4.7,0
		c-0.8,0.8-1.6,1.6-1.6,1.6c-0.8,0-0.8,6.3,0,10.2c0,1.6,0.8,3.9,1.6,6.3c0.8,3.1,1.6,4.7,3.1,6.3c0.8,0.8,2.3,2.3,2.3,2.3
		C258.3,113.3,259.1,113.3,259.9,112.6"/>
	<path class="st4" d="M310.7,265.7c-6.3-0.8-17.2-1.6-25.8-2.3c-10.2-0.8-16.4-1.6-20.3-3.1c-3.1-0.8-8.6-1.6-11.7-2.3
		c-6.3-0.8-11.7-2.3-29.7-7c-11.7-3.1-12.5-3.9-21.9-8.6c-5.5-3.1-12.5-6.3-15.6-7.8c-7.8-3.9-35.9-20.3-40.6-22.7
		c-7.8-5.5-28.1-18.8-32.8-21.9c-2.3-1.6-6.3-4.7-8.6-5.5c-2.3-0.8-7-4.7-10.2-7.8c-5.5-4.7-6.3-5.5-10.2-10.9
		c-3.9-5.5-4.7-7-7-13.3l-2.3-7v5.5v5.5l-1.6-3.9l-3.1-3.1v-7.8c0-9.4,0.8-11.7,2.3-11.7c0.8,0,2.3-0.8,3.1-1.6
		c1.6-0.8,1.6-1.6,1.6-2.3c0-0.8,0-1.6,0.8-2.3c0-0.8,1.6-3.9,2.3-7c3.9-10.9,11.7-24.2,21.1-32c3.9-3.9,4.7-4.7,14.8-10.2
		c20.3-11.7,33.6-17.2,39.9-18.8c8.6-1.6,10.9-2.3,18.8-4.7c3.1-0.8,6.3-1.6,15.6-2.3c6.3-0.8,14.1-1.6,17.2-1.6
		c3.9,0,10.9-0.8,20.3-0.8c14.8,0,13.3,0,33.6,2.3c3.9,0.8,8.6,0.8,11.7,0.8c6.3,0,13.3,0.8,18.8,2.3c2.3,0.8,7,1.6,10.2,2.3
		c3.1,0.8,6.3,0.8,7,0.8c0.8,0,3.9,0.8,7.8,0.8c3.1,0.8,7.8,1.6,10.2,2.3c2.3,0.8,6.3,1.6,8.6,1.6c7.8,0.8,12.5,3.1,22.7,7.8
		c5.5,2.3,11.7,6.3,14.1,7.8c3.1,1.6,7,3.9,9.4,4.7c6.3,3.1,12.5,6.3,18,9.4c2.3,1.6,6.3,3.9,8.6,4.7c6.3,3.1,7.8,3.9,7,4.7
		s-0.8,3.1,0,3.9c0.8,0.8,3.1,2.3,6.3,3.9s9.4,6.3,14.1,10.2c7,5.5,10.2,7.8,17.2,14.8c7.8,7.8,8.6,9.4,12.5,14.8
		c5.5,9.4,7.8,15.6,7.8,21.9c0,1.6,0,5.5-0.8,8.6c-0.8,5.5-2.3,10.9-7.8,25.8c-2.3,7-8.6,18-14.1,25.8c-3.9,6.3-6.3,7.8-10.9,12.5
		s-7,6.3-13.3,10.2c-10.9,6.3-14.8,7.8-21.1,8.6c-3.1,0-7.8,1.6-10.2,1.6c-3.1,0.8-9.4,1.6-16.4,2.3c-10.9,0.8-12.5,1.6-32.8,1.6
		C323.2,266.5,320,266.5,310.7,265.7 M341.9,260.3c3.9,0,4.7-0.8,7.8-2.3c1.6-0.8,3.1-1.6,3.9-1.6c0,0-1.6-2.3-3.1-5.5
		c-2.3-3.1-4.7-7-5.5-9.4c-1.6-1.6-5.5-7-9.4-11.7c-3.9-4.7-8.6-10.2-9.4-11.7l-2.3-3.1h1.6c1.6,0,3.1-1.6,3.1-3.9
		c0-0.8,0.8-0.8,3.1,2.3c1.6,1.6,4.7,4.7,7,6.3c4.7,3.9,18.8,20.3,22.7,25.8c1.6,2.3,3.9,5.5,5.5,7l2.3,3.1h6.3
		c3.9,0,8.6,0.8,11.7,0.8c4.7,0,6.3,0,10.9-0.8c4.7-0.8,5.5-1.6,8.6-3.9c2.3-1.6,4.7-3.1,5.5-4.7l1.6-2.3l-9.4-5.5
		c-11.7-7-21.1-13.3-39.9-25.8c-13.3-8.6-18-12.5-31.3-21.1c-0.8-0.8-0.8-0.8,0-2.3l0.8-1.6l6.3,2.3c3.9,1.6,8.6,3.1,14.8,7
		c4.7,2.3,12.5,7,17.2,9.4c4.7,2.3,11.7,6.3,15.6,8.6s10.2,5.5,14.1,7.8c3.9,1.6,9.4,4.7,11.7,6.3c2.3,1.6,6.3,3.9,8.6,4.7l3.1,1.6
		l6.3-3.1c6.3-3.1,7.8-4.7,11.7-9.4c3.1-3.9,2.3-3.1,3.9-7.8c1.6-4.7,1.6-7,0.8-7.8c-1.6-0.8-7.8-2.3-12.5-3.9
		c-3.1-0.8-9.4-3.1-14.1-4.7c-4.7-1.6-13.3-3.9-18.8-6.3c-5.5-2.3-12.5-4.7-14.8-4.7c-2.3-0.8-9.4-3.1-15.6-5.5
		c-6.3-2.3-12.5-4.7-14.8-4.7c-7-1.6-12.5-3.9-12.5-4.7c0-0.8-0.8-1.6-1.6-1.6c-0.8,0-3.9-1.6-3.9-2.3c0-0.8,9.4,0.8,13.3,2.3
		c2.3,0.8,6.3,1.6,8.6,1.6c2.3,0,7.8,1.6,11.7,2.3c17.2,3.9,44.5,10.9,47.7,12.5c10.2,3.9,22.7,6.3,28.1,6.3h3.1l2.3-4.7
		c1.6-3.1,3.1-6.3,3.9-8.6c0.8-3.9,0.8-4.7,0.8-8.6c0-3.1-1.6-6.3-2.3-9.4l-1.6-5.5h-19.5c-17.2,0-21.1-0.8-27.4-1.6
		c-3.9-0.8-10.2-0.8-13.3-0.8c-3.1,0-7.8,0-10.9-0.8c-3.1,0-9.4-0.8-14.8-0.8h-9.4v-3.1v-3.1h2.3c1.6,0,8.6-0.8,15.6-0.8
		c24.2-1.6,34.4-2.3,39.1-2.3c3.1,0,7.8-0.8,10.9-0.8c5.5,0,6.3,0,8.6-1.6c3.1-1.6,2.3-1.6,1.6-5.5c-0.8-2.3-7-11.7-10.2-14.8
		c-1.6-1.6-3.1-3.1-4.7-3.9c-1.6-0.8-3.9-2.3-6.3-3.9L413,111h-1.6c-0.8,0-8.6,2.3-17.2,4.7c-7.8,2.3-18,5.5-21.9,6.3
		c-3.9,0.8-10.2,3.1-13.3,4.7l-7,2.3l-1.6-0.8c-0.8-0.8-2.3-0.8-2.3-0.8c-1.6,0-0.8,0,9.4-6.3c5.5-3.1,11.7-7,14.1-8.6
		c2.3-1.6,7-3.9,9.4-5.5c3.1-1.6,7-3.9,9.4-5.5l4.7-3.1l-1.6-1.6c-2.3-2.3-7.8-6.3-14.1-9.4c-4.7-2.3-6.3-3.1-10.9-3.9
		c-3.1-0.8-7-1.6-8.6-1.6l-3.1-0.8l-1.6,1.6c-0.8,0.8-3.1,3.9-5.5,7c-2.3,3.1-6.3,8.6-9.4,12.5c-3.1,3.9-7.8,9.4-10.2,12.5
		c-2.3,3.1-7,8.6-10.9,11.7c-3.9,3.9-6.3,6.3-6.3,7c0,0,3.1,2.3,6.3,3.9c3.9,2.3,8.6,5.5,10.9,7c3.9,3.1,4.7,3.1,6.3,3.1
		c1.6,0,1.6,0-0.8,1.6c-1.6,0.8-2.3,1.6-2.3,2.3c0,0.8,0.8,1.6,2.3,1.6h1.6l-1.6,4.7c-1.6,2.3-2.3,4.7-3.1,6.3
		c-0.8,2.3-0.8,2.3-1.6,2.3c-2.3-0.8-3.1-1.6-3.1-1.6c0-0.8-0.8-0.8-2.3,0.8l-1.6,1.6l1.6,2.3c0.8,0.8,1.6,2.3,2.3,3.1
		c0.8,0.8,1.6,0.8,1.6,0.8s-1.6,2.3-2.3,3.9l-2.3,3.9l-1.6-0.8c-0.8-0.8-2.3-0.8-4.7-0.8h-3.1v2.3c0,1.6,0,2.3,0.8,2.3
		c0,0,1.6,0.8,3.1,2.3l2.3,2.3l-3.1,0c-0.8,0.8-2.3,3.1-3.1,4.7c-0.8,1.6-2.3,3.1-2.3,3.1c0,0.8-0.8,0-1.6-0.8
		c-0.8-1.6-0.8-1.6-2.3-1.6h-2.3v3.1c0,1.6,0,3.1,0,3.1c0,0.8-6.3,3.1-10.2,3.1c-2.3,0-3.1,0-3.9,0.8c0,0.8-1.6,0.8-3.1,1.6
		c-1.6,0-2.3,0.8-2.3,0.8s0.8,1.6,1.6,2.3c5.5,6.3,11.7,18.8,15.6,32c1.6,3.9,3.1,8.6,3.9,10.9l1.6,3.9l3.1,1.6
		c1.6,0.8,4.7,1.6,7,2.3C325.5,261,331,261,341.9,260.3 M295.8,254c0-0.8,0-2.3-0.8-3.9c0-1.6-1.6-7.8-2.3-14.8
		c-3.1-19.5-6.3-28.1-9.4-28.1c-0.8,0-1.6,0-1.6-1.6c-0.8-2.3-3.9-3.1-4.7-1.6c0,0-0.8,1.6-0.8,2.3c0,0.8,0,1.6,0,1.6s-3.1,0-7,0.8
		c-3.9,0.8-7,0.8-7,0.8s-0.8-1.6-1.6-3.1c-0.8-3.1-1.6-3.1-2.3-1.6c0,0.8-0.8,0.8-0.8,1.6c-1.6,2.3-2.3,4.7-2.3,7.8
		c0,2.3-0.8,4.7-0.8,5.5c0,0.8,0,2.3,0.8,3.1c0.8,1.6,0.8,1.6,2.3,1.6c0.8,0,2.3,0,2.3-0.8c0.8-0.8,0.8-0.8,0.8-0.8s0,5.5-0.8,11.7
		c-0.8,6.3-0.8,12.5-0.8,12.5c0,1.6,3.9,3.1,8.6,4.7c2.3,0.8,6.3,1.6,7.8,2.3c2.3,0.8,3.1,0.8,11.7,1.6h8.6V254z M242.7,241.5
		c0.8-3.1,3.9-10.2,5.5-14.8c2.3-5.5,3.9-10.9,4.7-12.5l0.8-3.1h-5.5h-5.5v-1.6v-1.6h-1.6c-0.8,0-2.3,0-2.3,0.8
		c-0.8,0.8-0.8,0-3.1-2.3c-1.6-1.6-3.1-3.1-3.9-4.7l-1.6-2.3l0.8-1.6c1.6-2.3,1.6-2.3,0.8-3.1c-0.8-0.8-1.6-0.8-2.3-0.8
		c-2.3,0-6.3,2.3-10.2,6.3c-2.3,2.3-3.1,3.9-2.3,4.7c0,0,0.8,0.8,1.6,1.6c0,0.8,0.8,1.6,1.6,1.6c0.8,0-6.3,7-10.2,10.2
		c-3.1,2.3-7,7.8-9.4,10.9l-1.6,2.3l1.6,1.6c3.1,3.1,6.3,5.5,15.6,8.6c6.3,2.3,10.9,3.9,14.1,4.7c3.1,0.8,5.5,1.6,5.5,1.6
		s1.6,0,3.1,0h3.1L242.7,241.5z M181.7,218.8c2.3-1.6,7-5.5,10.9-7.8c3.9-2.3,9.4-6.3,11.7-7.8c3.1-2.3,7.8-5.5,10.9-7
		c3.1-1.6,6.3-3.9,7-3.9c0.8-0.8,1.6-0.8,1.6-0.8s-0.8-1.6-1.6-2.3c-0.8-1.6-1.6-3.1-1.6-3.1s0.8-0.8,1.6-1.6
		c0.8-0.8,1.6-0.8,1.6-0.8c0-0.8-3.1-2.3-3.9-2.3c-1.6,0-1.6,0-4.7-3.9c-2.3-3.1-3.1-4.7-2.3-4.7c0.8-0.8,1.6-2.3,1.6-2.3
		s-3.1-1.6-3.9-1.6c-0.8,0-1.6-0.8-4.7-5.5c-2.3-3.1-3.9-5.5-3.9-6.3l-0.8-0.8h-14.8c-10.2,0-19.5,0-29.7-0.8
		c-21.9-1.6-25-1.6-33.6-3.1c-6.3-2.3-10.2-2.3-14.8-2.3c-6.3,0-14.1,0.8-14.1,1.6c0,0,0.8,3.1,2.3,6.3c3.1,8.6,6.3,14.1,10.9,18
		c1.6,1.6,3.9,4.7,4.7,5.5c1.6,1.6,2.3,2.3,2.3,2.3c4.7-1.6,14.8-3.1,35.9-6.3c3.1-0.8,9.4-1.6,13.3-2.3c5.5-1.6,9.4-2.3,15.6-2.3
		c4.7-0.8,10.9-1.6,14.1-1.6c3.1-0.8,6.3-0.8,6.3-0.8s0,0.8,0,2.3c0,2.3,0,2.3-1.6,3.1s-17.2,5.5-21.9,7c-1.6,0.8-6.3,2.3-9.4,3.9
		c-3.9,0-9.4,1.6-11.7,2.3c-3.1,0.8-7.8,2.3-11.7,3.9c-3.1,0.8-6.3,2.3-7,2.3c-0.8,0-0.8,0-0.8,0.8c0,0,3.9,3.9,12.5,10.9
		c8.6,7,15.6,10.9,20.3,12.5c1.6,0,3.1,1.6,3.9,1.6C175.5,222.7,177,222.7,181.7,218.8 M191.1,151.6c0.8-0.8,2.3-0.8,3.1,0
		c0.8,0,2.3,0.8,3.1,0.8h1.6l-0.8-1.6c-0.8-1.6-0.8-1.6,0-2.3s0.8-0.8-1.6-3.1c-1.6-1.6-3.1-3.1-3.9-5.5c-1.6-3.1-1.6-3.1-0.8-3.1
		s1.6-0.8,1.6-0.8c0.8-0.8,0.8-0.8-1.6-2.3c-2.3-1.6-2.3-1.6-1.6-2.3c0,0-0.8-0.8-5.5-2.3c-3.1-0.8-6.3-2.3-7-2.3
		c-0.8,0-10.2-3.1-21.1-6.3c-10.9-3.1-25.8-7-32.8-9.4c-13.3-3.9-16.4-5.5-19.5-5.5h-1.6l-1.6,3.1c-2.3,4.7-8.6,16.4-10.2,21.1
		c-1.6,3.1-1.6,4.7-1.6,6.3c0,2.3,0,2.3,1.6,3.1c0.8,0,5.5,0.8,10.9,0.8c4.7,0,9.4,0.8,10.2,0.8c0,0,3.9,0.8,7.8,1.6
		c3.9,0.8,11.7,1.6,17.2,2.3c5.5,0.8,16.4,2.3,23.4,3.1c14.1,1.6,24.2,3.1,25,3.9c0,0,0.8,0.8,0.8,1.6v1.6h3.9
		C188,152.4,190.3,152.4,191.1,151.6 M313,132.1c0.8-3.1,5.5-10.2,6.3-10.9c0.8,0,1.6-0.8,2.3-1.6l1.6-0.8v-3.1v-3.1l5.5-8.6
		c11.7-16.4,14.1-20.3,14.1-25v-2.3l-3.1-1.6c-1.6-0.8-3.1-1.6-3.9-1.6c-0.8,0-2.3-0.8-3.9-1.6c-1.6-0.8-4.7-2.3-7-2.3
		c-2.3-0.8-5.5-1.6-6.3-1.6c-1.6-0.8-3.9-0.8-6.3-0.8c-3.9,0-3.9,0-4.7,0.8c-2.3,6.3-4.7,14.8-6.3,21.9c-3.1,14.8-5.5,24.2-7.8,29.7
		l-2.3,4.7l2.3,1.6c10.9,6.3,16.4,9.4,17.2,9.4C312.2,133.7,312.2,132.9,313,132.1 M195.8,126.6c0.8-0.8,3.1-1.6,3.9-1.6
		c1.6-0.8,2.3-0.8,3.1-0.8c1.6,0,1.6,0,2.3-1.6c0.8-0.8,0.8-1.6,1.6-1.6c0,0,0.8-0.8,1.6-0.8c0.8-0.8,1.6-0.8,2.3-0.8
		s-0.8-1.6-6.3-4.7c-3.9-2.3-7.8-5.5-8.6-7c-0.8-1.6-1.6-1.6-2.3-1.6c-1.6,0-7.8-3.9-17.2-10.9c-3.1-2.3-8.6-6.3-12.5-8.6
		c-3.9-2.3-8.6-5.5-10.9-7.8c-3.1-2.3-5.5-3.9-7-5.5l-3.1-1.6l-4.7,1.6c-2.3,0.8-6.3,1.6-7.8,2.3c-1.6,0.8-3.9,1.6-4.7,2.3
		c-3.9,0.8-8.6,3.9-10.9,7c-3.1,3.1-5.5,5.5-4.7,6.3c0,0,2.3,0.8,4.7,1.6c9.4,2.3,27.4,10.2,41.4,16.4c3.1,1.6,10.2,4.7,14.8,6.3
		c5.5,2.3,10.9,4.7,15.6,7.8c3.9,2.3,7.8,3.9,7.8,3.9C193.5,127.4,195,127.4,195.8,126.6 M223.1,122.7c0,0,0-0.8-0.8-1.6
		c-0.8-0.8-1.6-1.6-1.6-2.3c0-1.6,0-1.6,3.1-2.3l3.1-0.8l1.6,1.6c1.6,2.3,3.1,3.1,5.5,3.1c1.6,0,1.6,0,0.8-1.6
		c-0.8-1.6-2.3-10.2-2.3-10.9c0,0,0.8,0,1.6,1.6c0.8,0.8,1.6,2.3,1.6,2.3s1.6,0,2.3,0c1.6-0.8,2.3-0.8,2.3,0s1.6,2.3,3.1,3.9
		c3.1,3.1,3.1,3.1,3.9,2.3c0.8-0.8,1.6-0.8,1.6-2.3c0-0.8,0-3.1-0.8-3.9c0-0.8-0.8-2.3,0-2.3c0,0,1.6-0.8,2.3-0.8l2.3-0.8l2.3,2.3
		c1.6,1.6,2.3,2.3,2.3,3.1c0,0,0,0.8,0.8,0.8c1.6,0,1.6-0.8,1.6-8.6c0-3.9,0-7,0.8-7c0,0,1.6,2.3,2.3,5.5l2.3,5.5l4.7,2.3
		c5.5,3.1,6.3,3.9,6.3,5.5c0,0.8,0,0.8,0.8,0.8c0.8,0,1.6,0,1.6-0.8c0.8-0.8,0.8-0.8,6.3,2.3l5.5,3.1v-1.6c0-0.8,0-3.1-0.8-6.3
		c-0.8-4.7,0-7.8,1.6-32c0-3.1,0.8-9.4,0.8-13.3v-5.5l-3.9-1.6c-7.8-2.3-18.8-4.7-27.4-4.7c-3.9,0-8.6-0.8-9.4-0.8
		c-0.8,0-2.3-0.8-3.1,0h-0.8l3.1,10.2c1.6,5.5,3.1,11.7,3.9,14.1S256,86,256,86h-0.8c-0.8,0-1.6,0-2.3,0.8c-0.8,0.8-1.6,0.8-1.6,0.8
		s-0.8,0-0.8,0.8c0,2.3-1.6-0.8-3.9-10.2c-3.1-10.2-5.5-16.4-7.8-18.8c-0.8-0.8-2.3-1.6-3.9-1.6c-1.6,0-3.9-0.8-7-1.6
		c-2.3-0.8-5.5-0.8-7-0.8c-1.6,0-3.1,0-4.7-0.8c-2.3-0.8-6.3-0.8-7.8,0c-0.8,0-2.3,0.8-3.1,0.8c-1.6,0-2.3,0-3.9,0.8
		c-0.8,0.8-1.6,1.6-1.6,1.6c0,0.8,3.1,5.5,6.3,10.2c1.6,3.1,4.7,7,5.5,9.4c1.6,2.3,3.9,6.3,6.3,8.6s5.5,6.3,7,8.6
		c4.7,7,7,11.7,4.7,9.4c-0.8-0.8-1.6-0.8-3.1-0.8h-2.3l-6.3-7c-3.1-3.9-7.8-9.4-9.4-11.7c-6.3-8.6-10.2-12.5-14.1-15.6
		c-2.3-1.6-4.7-3.1-6.3-4.7c-0.8,0-0.8,0-3.9,0c-1.6,0-6.3,0.8-10.2,0.8c-6.3,0.8-7,0.8-12.5,2.3c-3.1,1.6-7,2.3-7,2.3
		c-0.8,0,0.8,0.8,3.1,2.3c7,4.7,23.4,17.2,29.7,23.4c3.1,3.1,10.9,9.4,16.4,13.3c5.5,3.9,10.9,9.4,13.3,10.9
		c3.1,3.1,3.1,3.1,4.7,3.1C221.6,122.7,222.4,122.7,223.1,122.7"/>
	<path class="st4" d="M327.1,139.1c0,0,7.8-5.5,10.9-7c1.6-0.8,2.3-1.6,2.3-0.8c-0.8,0.8-2.3,2.3-3.9,3.9c-2.3,2.3-3.9,3.1-4.7,3.1
		s-2.3,0.8-3.1,0.8C327.9,139.9,327.1,139.9,327.1,139.1"/>
</g>
</svg>
