<?xml version="1.0" encoding="utf-8"?>
<!-- Generator: Adobe Illustrator 23.0.5, SVG Export Plug-In . SVG Version: 6.00 Build 0)  -->
<svg version="1.1" id="Layer_1" xmlns:v="https://vecta.io/nano"
	 xmlns="http://www.w3.org/2000/svg" xmlns:xlink="http://www.w3.org/1999/xlink" x="0px" y="0px" viewBox="0 0 261.5 134"
	 style="enable-background:new 0 0 261.5 134;" xml:space="preserve">
<style type="text/css">
	.st0{fill:#BC9979;stroke:#68503A;stroke-width:1.5;stroke-linecap:round;stroke-linejoin:round;stroke-miterlimit:10;}
	.st1{opacity:0.4;fill:#E2C9B5;enable-background:new    ;}
	.st2{fill:#C6AF9D;stroke:#68503A;stroke-width:1.5;stroke-linecap:round;stroke-linejoin:round;stroke-miterlimit:10;}
	.st3{fill:#D69E70;stroke:#68503A;stroke-width:1.5;stroke-linecap:round;stroke-linejoin:round;stroke-miterlimit:10;}
	.st4{fill:#9B7861;stroke:#68503A;stroke-width:1.5;stroke-linecap:round;stroke-linejoin:round;stroke-miterlimit:10;}
	.st5{fill:#725944;}
	.st6{opacity:0.4;}
	.st7{fill:#68503A;}
	.st8{opacity:0.1;clip-path:url(#SVGID_2_);}
	.st9{clip-path:url(#SVGID_6_);}
	.st10{fill:#875930;}
	.st11{fill:#80CC33;}
	.st12{fill:#DBE6B7;}
	.st13{fill:#010100;}
	.st14{fill:#FFFFFF;}
	.st15{fill:#592D0F;}
	.st16{clip-path:url(#SVGID_8_);}
</style>
<g>
	<g>
		<path class="st0" d="M139.3,83.7l-2.4,0.5L14.1,84.6l5.3,30.1h0.1c1.1,10.5,26.3,18.9,57.2,18.9s56.2-8.4,57.2-18.9l0,0
			L139.3,83.7z"/>
		<path class="st1" d="M136.9,84.2L101,84.3c-0.3,4.8-0.5,9.5-1.3,14.3c-1,6.3-2.6,13.3-7.3,17.9c-4,4-9.2,6.4-14.7,7.9
			c-17.5,4.6-42.4,6.3-57.2-6.4c5.3,8.9,28.4,15.6,56.1,15.6c31,0,56.2-8.4,57.2-18.9l0,0l5.4-31L136.9,84.2z"/>
		<ellipse class="st2" cx="76.6" cy="83.4" rx="62.7" ry="18.4"/>
		<ellipse class="st3" cx="76.6" cy="82.9" rx="57.9" ry="16"/>
		<ellipse class="st4" cx="76.6" cy="82.9" rx="57.9" ry="16"/>
		<path class="st5" d="M85.8,91.7c-14.5-0.1-29.1,0.9-43.2,4.1c9.5,1.9,21.3,3,34,3c15.8,0,30-1.7,40.5-4.6
			C106.9,92.1,96.1,91.7,85.8,91.7z"/>
		<g class="st6">
			<g>
				<path class="st7" d="M20.3,91.1c-0.4-0.2-0.8-0.3-1.2-0.3c-0.3-0.1-0.5-0.1-0.8-0.1c-0.1,0-0.1,0-0.2,0.1H18c0,0,0,0-0.1,0.1
					l0,0V91c0,0,0,0.1,0.1,0.1c0,0.1,0.1,0.1,0.1,0.1l-0.2-0.1h-0.1l0,0c-0.1,0.1-0.1,0.2-0.2,0.2l0,0l0.2-0.2l0,0v0.1
					c0,0.1-0.1,0.2,0,0.3v0.1c0.6,0.8,1.3,1.5,2.1,2.2c0.5,0.3,1,0.6,1.6,0.9s1.3,0.6,2,0.7c1.3,0.4,2.6,0.6,3.5,0.7
					s1.5,0.1,1.5,0.1C24.9,93.2,22.2,91.7,20.3,91.1z"/>
				<path class="st7" d="M19.8,96.2c0,0,0.4,0,1,0c0.6,0.1,1.6,0.2,2.8,0.5c1.1,0.3,2.6,0.8,4.2,1.6c1.7,0.7,3.5,1.8,5.6,3.2
					c0,0-2.5,0.1-5.4-0.5C25,100.3,21.4,98.8,19.8,96.2z"/>
				<path class="st7" d="M17.3,100.5c0.3,0.2,0.7,0.4,1,0.5c0.7,0.4,1.5,0.6,2.3,0.9c1.5,0.5,2.9,0.7,3.9,0.9c1,0.1,1.6,0.2,1.6,0.2
					c-4-3.1-7.1-4.7-9.3-5.6C16.9,98.3,17.1,99.4,17.3,100.5z"/>
				<path class="st7" d="M25.3,105.1c-1.7-0.9-3.3-1.3-4.6-1.7c-1.3-0.4-2.4-0.5-3.1-0.7c0,0,0,0-0.1,0c0.1,0.4,0.1,0.9,0.2,1.3
					c2.1,1.9,5.1,3.1,7.8,3.7c3.2,0.8,5.8,0.7,5.8,0.7C29.1,107,27.1,105.8,25.3,105.1z"/>
				<path class="st7" d="M18.5,108.6c1.3,0.4,2.5,0.6,3.3,0.7c1.1,0.2,1.7,0.2,1.7,0.2c-2-1.5-3.9-2.7-5.5-3.6
					C18.1,106.8,18.3,107.7,18.5,108.6z"/>
			</g>
			<g>
				<path class="st7" d="M18.8,110.3c0.2,0.8,0.4,1.7,0.5,2.5c1.3,0.5,2.7,1,3.9,1.3c3.5,0.8,6.2,0.8,6.2,0.8
					c-2.4-1.5-4.5-2.7-6.5-3.5c-1.6-0.8-3-1.2-4.3-1.7C18.7,110,18.7,110.1,18.8,110.3z"/>
				<path class="st7" d="M20.9,118.4c0.2,0.4,0.4,0.8,0.6,1.2c0.3,0.6,0.7,1.1,1.1,1.7c2.8,0.5,4.8,0.5,4.8,0.5
					C25,120.4,22.9,119.2,20.9,118.4z"/>
			</g>
			<g>
				<path class="st7" d="M28.5,96.2c0,0,1.5-0.3,3.9,0.1c1.2,0.2,2.7,0.5,4.4,1.1c1.7,0.5,3.6,1.5,5.8,2.7c0,0-0.6,0.1-1.6,0.1
					s-2.3,0-3.8-0.2c-1.5-0.1-3.1-0.6-4.7-1.2C30.9,98.2,29.6,97.3,28.5,96.2z"/>
				<path class="st7" d="M33.4,101.5c0,0,0.4-0.1,1.1-0.1c0.7,0,1.7,0,3,0.1c2.6,0.3,6.2,1.1,10.8,3.4c0,0-2.5,0.4-5.6,0.1
					c-0.8-0.1-1.6-0.2-2.5-0.3c-0.8-0.2-1.7-0.4-2.5-0.7c-0.8-0.3-1.6-0.6-2.4-1C34.6,102.6,34,102.1,33.4,101.5z"/>
				<path class="st7" d="M26,102.9c0,0,1.6-0.3,4.2,0.2c1.3,0.2,2.9,0.6,4.7,1.2c1.8,0.6,3.8,1.6,6.1,2.8c0,0-0.6,0.1-1.7,0.1
					c-1,0-2.5-0.1-4.1-0.3c-1.6-0.2-3.3-0.7-5-1.3C28.7,105,27.2,104.1,26,102.9z"/>
				<path class="st7" d="M31.3,108.4c0,0,0.4-0.1,1.2-0.1c0.7,0,1.8,0,3.2,0.1c2.8,0.3,6.6,1.2,11.4,3.5c0,0-2.6,0.4-5.9,0.1
					c-0.8-0.1-1.7-0.2-2.6-0.3c-0.9-0.2-1.8-0.4-2.6-0.7c-0.9-0.3-1.7-0.6-2.5-1C32.7,109.5,32,109,31.3,108.4z"/>
				<path class="st7" d="M23.5,109.6c0,0,1.7-0.2,4.5,0.3c1.4,0.2,3.1,0.6,5,1.3c1.9,0.6,4.1,1.6,6.5,2.9c0,0-0.7,0.1-1.8,0.1
					s-2.6-0.1-4.3-0.3c-1.7-0.2-3.5-0.7-5.3-1.4C26.4,111.8,24.8,110.8,23.5,109.6z"/>
			</g>
			<g>
				<path class="st7" d="M29.4,114.9c0,0,0.4-0.1,1.2-0.1s1.9,0,3.4,0.2c2.9,0.3,7,1.3,12,3.6c0,0-2.7,0.4-6.2,0
					c-0.9-0.1-1.8-0.2-2.7-0.3c-0.9-0.2-1.9-0.4-2.8-0.7c-0.9-0.3-1.8-0.7-2.7-1.1C30.9,116,30.1,115.5,29.4,114.9z"/>
				<path class="st7" d="M21.2,116c0,0,1.8-0.2,4.8,0.4c1.5,0.3,3.3,0.7,5.3,1.4c2.1,0.6,4.3,1.7,6.9,3c0,0-0.7,0.1-1.8,0.1
					s-2.7-0.1-4.5-0.4c-1.8-0.2-3.8-0.8-5.6-1.4C24.3,118.3,22.5,117.2,21.2,116z"/>
				<path class="st7" d="M27.4,121.8c0,0,0.5-0.1,1.3-0.1s2.1,0,3.6,0.2c3.1,0.4,7.4,1.4,12.6,3.8c0,0-2.8,0.4-6.5,0
					c-0.9-0.1-1.9-0.2-2.8-0.4c-1-0.2-2-0.5-2.9-0.8c-1-0.3-1.9-0.7-2.8-1.1C29,122.9,28.1,122.4,27.4,121.8z"/>
				<path class="st7" d="M31,126.7c0.6,0.3,1.1,0.7,1.7,1c0.7,0.1,1.4,0.1,2,0.1c1.2,0,1.9,0,1.9,0c-2.7-1.3-5.1-2.4-7.3-3
					c-1.4-0.5-2.6-0.8-3.7-1.1C27.4,124.8,29.2,125.6,31,126.7z"/>
			</g>
			<g>
				<path class="st7" d="M43.4,100.3c0,0,1.5-0.5,4.1-0.4c1.3,0,2.9,0.2,4.7,0.6c1.8,0.4,3.9,1,6.3,2c0,0-2.4,0.5-5.6,0.5
					C49.8,103,45.9,102.4,43.4,100.3z"/>
				<path class="st7" d="M49.2,105c0,0,0.4-0.1,1.1-0.3c0.7-0.1,1.8-0.2,3.1-0.3c2.7-0.1,6.5,0.4,11.4,2.2c0,0-2.5,0.6-5.7,0.7
					C55.9,107.4,51.9,107,49.2,105z"/>
				<path class="st7" d="M42,107.3c0,0,1.6-0.4,4.3-0.3c1.4,0,3,0.2,4.9,0.6s4.1,1,6.5,2.1c0,0-2.5,0.5-5.8,0.5
					C48.7,110,44.6,109.5,42,107.3z"/>
				<path class="st7" d="M48.1,112c0,0,0.4-0.1,1.1-0.3c0.8-0.1,1.8-0.2,3.2-0.3c2.8-0.1,6.8,0.4,11.8,2.3c0,0-2.6,0.6-5.9,0.7
					C55.1,114.5,51,114.1,48.1,112z"/>
				<path class="st7" d="M40.5,114.3c0,0,1.7-0.4,4.5-0.3c1.4,0,3.2,0.2,5.2,0.7s4.3,1,6.8,2.1c0,0-2.6,0.5-6,0.5
					C47.6,117.1,43.4,116.5,40.5,114.3z"/>
			</g>
			<g>
				<path class="st7" d="M47.1,118.8c0,0,0.4-0.1,1.2-0.2c0.8-0.1,1.9-0.2,3.4-0.2c2.9,0,7.1,0.5,12.3,2.3c0,0-2.6,0.6-6.1,0.7
					C54.3,121.3,50.1,120.8,47.1,118.8z"/>
				<path class="st7" d="M39.2,121c0,0,1.7-0.4,4.7-0.3c1.5,0,3.3,0.2,5.4,0.7s4.4,1.1,7.1,2.1c0,0-2.7,0.5-6.3,0.4
					C46.5,123.9,42.1,123.2,39.2,121z"/>
				<path class="st7" d="M46,125.8c0,0,0.4-0.1,1.2-0.2c0.8-0.1,2-0.2,3.5-0.2s3.4,0.1,5.5,0.5s4.5,0.9,7.3,1.9c0,0-2.7,0.6-6.3,0.7
					C53.5,128.4,49.1,127.9,46,125.8z"/>
				<path class="st7" d="M37.7,128c0,0,1.8-0.4,4.9-0.2c1.6,0.1,3.4,0.2,5.6,0.7s4.6,1.1,7.4,2.2c0,0-2.8,0.5-6.5,0.4
					C45.4,130.9,40.9,130.3,37.7,128z"/>
			</g>
			<g>
				<path class="st7" d="M58.4,102.5c0,0,1.5-0.6,4.1-0.8c1.3-0.1,2.9-0.1,4.8,0.2c1.9,0.2,4.1,0.7,6.5,1.5c0,0-2.4,0.7-5.6,1
					c-1.6,0.2-3.4,0.1-5.1-0.2C61.5,103.9,59.8,103.5,58.4,102.5z"/>
				<path class="st7" d="M64.8,106.6c0,0,0.4-0.2,1.1-0.4c0.7-0.2,1.8-0.4,3.1-0.6c2.7-0.3,6.6-0.1,11.6,1.3c0,0-2.4,0.8-5.6,1.2
					c-1.6,0.1-3.4,0.2-5.2,0c-0.9-0.1-1.8-0.3-2.6-0.5C66.4,107.4,65.6,107.1,64.8,106.6z"/>
				<path class="st7" d="M57.7,109.7c0,0,1.5-0.6,4.3-0.8c1.4-0.1,3.1-0.1,5,0.2c2,0.2,4.2,0.7,6.8,1.5c0,0-2.5,0.7-5.8,1
					c-1.7,0.2-3.5,0.1-5.3-0.2C60.9,111.1,59.2,110.6,57.7,109.7z"/>
				<path class="st7" d="M64.4,113.8c0,0,0.4-0.2,1.1-0.3c0.7-0.2,1.8-0.4,3.2-0.6c2.8-0.3,6.9-0.1,12,1.3c0,0-2.5,0.8-5.8,1.2
					c-1.7,0.1-3.5,0.2-5.4,0c-0.9-0.1-1.8-0.3-2.7-0.5C65.9,114.6,65.1,114.2,64.4,113.8z"/>
				<path class="st7" d="M57,116.8c0,0,1.6-0.6,4.5-0.8c1.4-0.1,3.2-0.1,5.2,0.2c2,0.2,4.4,0.7,7,1.5c0,0-2.6,0.7-6,0.9
					c-1.7,0.2-3.6,0.1-5.5-0.2C60.3,118.2,58.5,117.8,57,116.8z"/>
			</g>
			<g>
				<path class="st7" d="M63.9,120.6c0,0,0.4-0.2,1.2-0.3c0.8-0.2,1.9-0.4,3.3-0.6c2.9-0.3,7-0.1,12.4,1.3c0,0-2.6,0.8-6,1.2
					c-1.7,0.1-3.6,0.2-5.5,0c-0.9-0.1-1.9-0.3-2.8-0.5C65.6,121.4,64.7,121,63.9,120.6z"/>
				<path class="st7" d="M56.3,123.6c0,0,1.7-0.6,4.6-0.8c1.5-0.1,3.3,0,5.4,0.2s4.5,0.7,7.2,1.5c0,0-2.7,0.7-6.2,0.9
					c-1.7,0.2-3.7,0-5.6-0.2S57.9,124.5,56.3,123.6z"/>
				<path class="st7" d="M63.4,127.7c0,0,0.4-0.2,1.2-0.3c0.8-0.2,1.9-0.4,3.4-0.5c3-0.3,7.3-0.1,12.8,1.4c0,0-2.7,0.8-6.2,1.2
					c-1.8,0.1-3.8,0.2-5.7,0c-1-0.1-1.9-0.3-2.9-0.5C65.1,128.5,64.3,128.2,63.4,127.7z"/>
				<path class="st7" d="M55.6,130.7c0,0,1.7-0.6,4.8-0.7c1.5-0.1,3.4,0,5.6,0.3c2.2,0.2,4.6,0.7,7.4,1.5c0,0-2.7,0.7-6.3,0.9
					c-1.8,0.1-3.8,0-5.8-0.2C59.2,132.2,57.2,131.7,55.6,130.7z"/>
			</g>
			<g>
				<path class="st7" d="M75,103.5c0,0,0.4-0.2,1.1-0.4c0.7-0.2,1.7-0.5,3-0.7s2.9-0.3,4.8-0.2c1.9,0.1,4.1,0.3,6.5,1
					c0,0-2.3,0.9-5.4,1.4C81.9,105,78,105,75,103.5z"/>
				<path class="st7" d="M81.7,107.1c0,0,0.4-0.2,1.1-0.4c0.7-0.2,1.7-0.5,3-0.8s3-0.4,4.9-0.4c1.9,0.1,4.1,0.2,6.7,0.7
					c0,0-2.3,1-5.5,1.7c-1.6,0.3-3.4,0.5-5.1,0.4c-0.9,0-1.8-0.1-2.6-0.3C83.3,107.7,82.5,107.4,81.7,107.1z"/>
				<path class="st7" d="M74.9,110.7c0,0,0.4-0.2,1.1-0.4c0.7-0.2,1.8-0.5,3.1-0.7c1.4-0.2,3-0.3,5-0.2c2,0.1,4.2,0.3,6.8,1
					c0,0-2.4,0.9-5.7,1.4C82,112.2,78,112.2,74.9,110.7z"/>
				<path class="st7" d="M81.9,114.2c0,0,0.4-0.2,1.1-0.4c0.7-0.2,1.8-0.5,3.2-0.8c1.4-0.3,3.1-0.4,5.1-0.4c2,0.1,4.3,0.2,7,0.7
					c0,0-2.4,1-5.7,1.7c-1.6,0.3-3.5,0.5-5.3,0.4c-0.9,0-1.8-0.1-2.7-0.3C83.5,114.9,82.6,114.6,81.9,114.2z"/>
				<path class="st7" d="M74.8,117.8c0,0,0.4-0.2,1.1-0.4c0.7-0.2,1.8-0.5,3.3-0.7c1.4-0.2,3.2-0.3,5.2-0.2c2,0,4.4,0.3,7.1,0.9
					c0,0-2.5,0.9-5.9,1.4C82.2,119.4,77.9,119.4,74.8,117.8z"/>
			</g>
			<g>
				<path class="st7" d="M82,121c0,0,0.4-0.2,1.1-0.4c0.7-0.2,1.8-0.5,3.3-0.8c1.4-0.3,3.2-0.4,5.3-0.4c2.1,0.1,4.5,0.1,7.2,0.7
					c0,0-2.5,1-5.9,1.7c-1.7,0.3-3.6,0.5-5.5,0.4c-1,0-1.9-0.1-2.8-0.3C83.7,121.7,82.8,121.4,82,121z"/>
				<path class="st7" d="M74.6,124.6c0,0,0.4-0.2,1.2-0.4c0.8-0.2,1.9-0.5,3.4-0.7s3.3-0.3,5.4-0.2c2.1,0,4.6,0.3,7.3,0.9
					c0,0-2.6,0.9-6.1,1.5C82.3,126.2,77.9,126.2,74.6,124.6z"/>
				<path class="st7" d="M82.1,128.2c0,0,0.4-0.2,1.2-0.4c0.8-0.2,1.9-0.5,3.4-0.8s3.3-0.5,5.5-0.4s4.7,0.1,7.5,0.6
					c0,0-2.6,1-6.2,1.7c-1.8,0.3-3.8,0.5-5.7,0.4c-1,0-2-0.1-2.9-0.3C83.8,128.8,82.9,128.6,82.1,128.2z"/>
				<path class="st7" d="M74.5,131.8c0,0,0.4-0.2,1.2-0.4c0.8-0.2,2-0.5,3.5-0.7s3.4-0.3,5.6-0.2c2.2,0,4.7,0.3,7.6,0.9
					c0,0-2.7,0.9-6.3,1.5C82.4,133.3,77.9,133.3,74.5,131.8z"/>
			</g>
			<g>
				<path class="st7" d="M90.5,103.1c0,0,0.3-0.2,1-0.5s1.6-0.7,2.9-1s2.9-0.5,4.7-0.6c1.9-0.1,4,0,6.5,0.4c0,0-0.5,0.3-1.5,0.7
					c-0.9,0.4-2.2,0.8-3.7,1.2c-1.5,0.4-3.2,0.6-5,0.7C93.7,104,92,103.9,90.5,103.1z"/>
				<path class="st7" d="M97.4,106.1c0,0,1.4-0.8,3.9-1.6c1.3-0.4,2.9-0.7,4.8-0.8c1.9-0.2,4.1-0.2,6.6,0c0,0-0.1,0.1-0.4,0.2
					c-0.2,0.1-0.6,0.3-1.1,0.5c-0.9,0.4-2.2,0.9-3.7,1.4s-3.3,0.8-5,0.9C100.8,106.9,99,106.8,97.4,106.1z"/>
				<path class="st7" d="M91,110.3c0,0,0.4-0.2,1-0.5c0.7-0.3,1.7-0.7,3-1s3-0.5,4.9-0.6s4.2,0,6.8,0.3c0,0-0.6,0.3-1.5,0.7
					c-1,0.4-2.3,0.9-3.9,1.3s-3.4,0.7-5.2,0.7S92.5,111,91,110.3z"/>
				<path class="st7" d="M98.2,113.3c0,0,1.4-0.8,4.1-1.6c1.3-0.4,3-0.7,5-0.9c2-0.2,4.3-0.2,7,0c0,0-0.1,0.1-0.4,0.2
					c-0.3,0.1-0.6,0.3-1.1,0.5c-1,0.4-2.4,1-3.9,1.5c-1.6,0.5-3.4,0.8-5.3,0.9C101.7,114,99.8,113.9,98.2,113.3z"/>
				<path class="st7" d="M91.4,117.4c0,0,0.4-0.2,1.1-0.5s1.8-0.7,3.2-1c1.4-0.3,3.1-0.6,5.2-0.7c2-0.1,4.4-0.1,7.1,0.3
					c0,0-0.6,0.3-1.6,0.7c-1,0.4-2.5,0.9-4.1,1.3c-1.7,0.5-3.5,0.7-5.4,0.7C94.9,118.3,93.1,118.2,91.4,117.4z"/>
			</g>
			<g>
				<path class="st7" d="M98.9,120c0,0,1.5-0.9,4.3-1.7c1.4-0.4,3.1-0.7,5.2-0.9c2.1-0.3,4.5-0.2,7.3-0.1c0,0-0.2,0.1-0.4,0.2
					c-0.3,0.1-0.7,0.3-1.2,0.6c-1,0.4-2.5,1-4.1,1.5c-1.7,0.5-3.6,0.9-5.5,1C102.5,120.8,100.6,120.7,98.9,120z"/>
				<path class="st7" d="M91.9,124.2c0,0,0.4-0.2,1.1-0.5s1.9-0.7,3.3-1s3.2-0.6,5.4-0.7c2.1-0.2,4.6-0.1,7.4,0.2
					c0,0-0.6,0.3-1.7,0.7c-1.1,0.4-2.6,0.9-4.3,1.3c-1.7,0.5-3.7,0.7-5.6,0.8C95.5,125.1,93.6,124.9,91.9,124.2z"/>
				<path class="st7" d="M99.6,127.2c0,0,1.5-0.9,4.5-1.7c1.5-0.4,3.3-0.7,5.5-0.9c2.2-0.3,4.7-0.3,7.6-0.1c0,0-0.2,0.1-0.5,0.2
					s-0.7,0.4-1.3,0.6c-1.1,0.4-2.6,1-4.3,1.5c-1.8,0.6-3.7,0.9-5.7,1C103.4,127.9,101.4,127.8,99.6,127.2z"/>
				<path class="st7" d="M107.4,130.4c0.6-0.2,1.2-0.4,1.9-0.6c0.6-0.2,1-0.4,1-0.4c-3-0.3-5.5-0.4-7.7-0.2
					c-2.2,0.1-4.1,0.4-5.6,0.7s-2.7,0.7-3.4,1c-0.8,0.3-1.2,0.5-1.2,0.5c1.8,0.7,3.8,0.8,5.8,0.8c2-0.1,4.1-0.3,5.9-0.8
					C105.3,131.1,106.4,130.8,107.4,130.4C107.3,130.5,107.4,130.4,107.4,130.4z"/>
			</g>
			<g>
				<path class="st7" d="M106.5,101.3c0,0,1.2-1,3.7-1.8c2.4-0.9,6-1.7,10.8-1.5c0,0-2,1.3-4.8,2.5c-1.4,0.5-3.1,1-4.7,1.2
					C109.8,101.8,108.1,101.8,106.5,101.3z"/>
				<path class="st7" d="M113.6,103.5c0,0,1.2-1,3.6-2c1.2-0.5,2.7-1,4.5-1.4c1.8-0.5,3.9-0.7,6.4-0.8c0,0-1.9,1.5-4.7,2.8
					S116.8,104.4,113.6,103.5z"/>
				<path class="st7" d="M107.7,108.3c0,0,1.3-1,3.9-1.9c2.6-0.9,6.3-1.8,11.5-1.7c0,0-2.1,1.4-5.1,2.6c-1.5,0.5-3.3,1-5,1.3
					C111.2,108.9,109.3,108.8,107.7,108.3z"/>
				<path class="st7" d="M115.2,110.5c0,0,1.3-1.1,3.9-2.1c1.3-0.6,2.9-1.1,4.8-1.5c1.9-0.5,4.2-0.8,6.8-1c0,0-2,1.6-5.1,3
					C122.6,110.3,118.6,111.4,115.2,110.5z"/>
				<path class="st7" d="M108.9,115.4c0,0,1.4-1,4.1-1.9c2.7-1,6.7-1.8,12.1-1.8c0,0-2.2,1.4-5.4,2.7c-1.6,0.6-3.4,1.1-5.3,1.4
					C112.5,115.9,110.6,115.9,108.9,115.4z"/>
			</g>
			<g>
				<path class="st7" d="M116.7,117.2c0,0,1.4-1.1,4.1-2.1c1.3-0.6,3-1.1,5.1-1.6c2-0.5,4.4-0.8,7.2-1.1c0,0-2.2,1.7-5.4,3.1
					C124.4,116.9,120.2,118,116.7,117.2z"/>
				<path class="st7" d="M110.1,122.1c0,0,1.5-1,4.3-2s7-1.9,12.8-2c0,0-2.4,1.5-5.8,2.8c-1.7,0.6-3.6,1.1-5.6,1.4
					C113.9,122.6,111.9,122.6,110.1,122.1z"/>
				<path class="st7" d="M128.6,122.8c1.1-0.9,2.2-1.9,3.1-3.2c-1.3,0.2-2.6,0.4-3.7,0.7c-2.2,0.5-4,1.1-5.4,1.6
					c-2.9,1.1-4.3,2.2-4.3,2.2C121.5,124.8,125.3,124,128.6,122.8z"/>
				<path class="st7" d="M124,125.4c-3.5,0.4-6.2,1.1-8.2,1.8c-3,0.9-4.5,2-4.5,2l0,0C115.6,128,120.1,127.1,124,125.4z"/>
			</g>
			<g>
				<path class="st7" d="M121,97.9c0,0,1.1-1.2,3.3-2.3c2.2-1.2,5.5-2.3,9.9-2.9c0,0-0.4,0.4-1.1,1c-0.7,0.6-1.7,1.4-3,2.1
					c-1.2,0.8-2.8,1.4-4.3,1.8C124.3,98.1,122.6,98.2,121,97.9z"/>
				<path class="st7" d="M136.9,96.8c0.2-0.9,0.3-1.8,0.5-2.7c-0.7,0.2-1.4,0.5-2.1,0.7c-1.6,0.6-2.9,1.4-4,2
					c-1.1,0.7-1.8,1.3-2.4,1.7c-0.5,0.5-0.8,0.8-0.8,0.8C131.2,99.7,134.5,98.3,136.9,96.8z"/>
				<path class="st7" d="M128.2,104.4c1.7-0.5,3.4-1.2,4.7-2c1.4-0.8,2.5-1.6,3.3-2.2c0,0,0,0,0.1-0.1c0-0.3,0.1-0.5,0.1-0.8
					c-4.4,0.8-7.6,1.9-9.8,3.1c-2.4,1.2-3.5,2.4-3.5,2.4C124.7,105,126.5,104.9,128.2,104.4z"/>
				<path class="st7" d="M135.5,105.4c0.2-1,0.3-2,0.5-3c-0.7,0.3-1.3,0.7-1.8,1c-1.2,0.7-2,1.4-2.6,1.8c-0.6,0.5-0.9,0.8-0.9,0.8
					C132.3,106.2,133.9,105.9,135.5,105.4z"/>
				<path class="st7" d="M130.6,111.2c1.5-0.4,2.9-1,4.2-1.6c0.2-0.9,0.3-1.8,0.5-2.8c-2.6,0.7-4.7,1.6-6.3,2.4
					c-2.6,1.2-3.8,2.4-3.8,2.4C126.9,111.9,128.8,111.7,130.6,111.2z"/>
			</g>
			<g>
				<path class="st7" d="M132.9,117.6c0,0,0-0.1,0.1-0.1c0,0,0,0,0.1-0.1c0.4-1,0.7-2,0.9-3c-1,0.4-1.9,0.8-2.7,1.2
					c-2.7,1.3-4.1,2.5-4.1,2.5C129,118.4,130.9,118.1,132.9,117.6z"/>
			</g>
		</g>
		<g>
			<g>
				<defs>
					<ellipse id="SVGID_1_" cx="76.6" cy="82.9" rx="57.9" ry="16"/>
				</defs>
				<clipPath id="SVGID_2_">
					<use xlink:href="#SVGID_1_"  style="overflow:visible;"/>
				</clipPath>
				<g class="st8">
					<g>
						<path class="st7" d="M18,110.4c-0.5,0.2-0.8,0.3-1.2,0.3c-0.3,0.1-0.6,0.1-0.8,0.1c-0.1,0-0.1,0-0.2-0.1h-0.1c0,0,0,0-0.1-0.1
							l0,0v-0.1l0.1-0.1c0-0.1,0.1-0.1,0.1-0.1l-0.2,0.1h-0.1l0,0c-0.1-0.1-0.1-0.2-0.2-0.2l0,0l0.2,0.2l0,0v-0.1
							c0-0.1-0.1-0.2,0-0.3v-0.1c0.6-0.8,1.4-1.5,2.1-2.2c0.5-0.3,1-0.6,1.6-0.9c0.7-0.3,1.4-0.6,2.1-0.7c1.4-0.4,2.7-0.6,3.6-0.7
							c0.9-0.1,1.5-0.1,1.5-0.1C22.8,108.4,19.9,109.8,18,110.4z"/>
						<path class="st7" d="M17.5,105.3c0,0,0.4,0,1.1,0c0.7-0.1,1.7-0.2,2.9-0.5s2.7-0.8,4.4-1.6c1.7-0.7,3.6-1.8,5.8-3.2
							c0,0-2.6-0.1-5.7,0.5C22.8,101.2,19.1,102.7,17.5,105.3z"/>
						<path class="st7" d="M14.8,101.1c0.3-0.2,0.7-0.4,1.1-0.5c0.8-0.4,1.6-0.6,2.3-0.9c1.5-0.5,3-0.7,4-0.9c1-0.1,1.7-0.2,1.7-0.2
							c-4.1,3.1-7.4,4.7-9.7,5.6C14.5,103.2,14.7,102.1,14.8,101.1z"/>
						<path class="st7" d="M23.2,96.5c-1.8,0.9-3.5,1.3-4.8,1.7c-1.3,0.4-2.5,0.5-3.2,0.7c0,0,0,0-0.1,0c0.1-0.4,0.1-0.9,0.2-1.3
							c2.2-1.9,5.3-3.1,8.1-3.7c3.3-0.8,6.1-0.7,6.1-0.7C27.1,94.6,25.1,95.7,23.2,96.5z"/>
						<path class="st7" d="M16.1,92.9c1.3-0.4,2.5-0.6,3.5-0.7c1.1-0.2,1.8-0.2,1.8-0.2c-2.1,1.5-4,2.7-5.7,3.6
							C15.7,94.7,15.9,93.8,16.1,92.9z"/>
					</g>
					<g>
						<path class="st7" d="M16.4,91.2c0.2-0.8,0.4-1.7,0.6-2.5c1.4-0.5,2.8-1,4-1.3c3.6-0.8,6.5-0.8,6.5-0.8
							c-2.5,1.4-4.7,2.6-6.7,3.5c-1.6,0.8-3.1,1.2-4.4,1.7C16.3,91.6,16.4,91.4,16.4,91.2z"/>
						<path class="st7" d="M18.6,83.2c0.2-0.4,0.4-0.8,0.6-1.2c0.3-0.6,0.7-1.1,1.1-1.7c2.9-0.5,5-0.5,5-0.5
							C22.9,81.2,20.7,82.3,18.6,83.2z"/>
					</g>
					<g>
						<path class="st7" d="M26.5,105.4c0,0,1.6,0.3,4-0.1c1.3-0.2,2.8-0.5,4.5-1.1c1.8-0.5,3.7-1.5,6-2.7c0,0-0.6-0.1-1.7-0.1
							c-1,0-2.4,0-4,0.2c-1.6,0.1-3.2,0.6-4.8,1.2C29,103.3,27.6,104.2,26.5,105.4z"/>
						<path class="st7" d="M31.5,100.1c0,0,0.4,0.1,1.1,0.1c0.7,0,1.8,0,3.2-0.1c2.7-0.3,6.5-1.1,11.2-3.4c0,0-2.6-0.4-5.9-0.1
							c-0.8,0.1-1.7,0.2-2.6,0.3c-0.9,0.2-1.7,0.4-2.6,0.7c-0.9,0.3-1.7,0.6-2.5,1C32.9,99,32.2,99.5,31.5,100.1z"/>
						<path class="st7" d="M23.9,98.7c0,0,1.7,0.3,4.4-0.2c1.4-0.2,3-0.6,4.9-1.2c1.9-0.6,4-1.6,6.4-2.8c0,0-0.7-0.1-1.7-0.1
							c-1.1,0-2.6,0.1-4.2,0.3c-1.7,0.2-3.5,0.7-5.2,1.3C26.7,96.5,25.1,97.5,23.9,98.7z"/>
						<path class="st7" d="M29.5,93.2c0,0,0.4,0.1,1.2,0.1s1.9,0,3.3-0.1c2.9-0.3,6.9-1.2,11.9-3.5c0,0-2.7-0.4-6.2-0.1
							c-0.9,0.1-1.8,0.2-2.7,0.3c-0.9,0.2-1.8,0.4-2.7,0.7c-0.9,0.3-1.8,0.6-2.6,1C30.9,92.1,30.1,92.6,29.5,93.2z"/>
						<path class="st7" d="M21.3,91.9c0,0,1.8,0.2,4.7-0.3c1.5-0.2,3.2-0.6,5.2-1.3c2-0.6,4.3-1.6,6.8-2.9c0,0-0.7-0.1-1.8-0.1
							s-2.7,0.1-4.5,0.3c-1.8,0.2-3.7,0.7-5.5,1.4C24.3,89.7,22.6,90.7,21.3,91.9z"/>
					</g>
					<g>
						<path class="st7" d="M27.5,86.6c0,0,0.4,0.1,1.3,0.1c0.8,0,2,0,3.5-0.2c3-0.3,7.2-1.3,12.5-3.6c0,0-2.8-0.4-6.4,0
							c-0.9,0.1-1.9,0.2-2.8,0.3c-1,0.2-1.9,0.4-2.9,0.7c-1,0.3-1.9,0.7-2.8,1.1C29,85.5,28.2,86,27.5,86.6z"/>
						<path class="st7" d="M18.9,85.6c0,0,1.9,0.2,5-0.4c1.6-0.3,3.4-0.7,5.5-1.4c2.1-0.6,4.5-1.7,7.1-3c0,0-0.7-0.1-1.9-0.1
							c-1.2,0-2.8,0.1-4.7,0.4c-1.9,0.2-3.9,0.8-5.8,1.4C22.1,83.2,20.3,84.3,18.9,85.6z"/>
						<path class="st7" d="M25.4,79.8c0,0,0.5,0.1,1.3,0.1c0.9,0,2.1,0,3.7-0.2c3.2-0.4,7.6-1.4,13.1-3.8c0,0-2.9-0.4-6.7,0
							c-0.9,0.1-1.9,0.2-3,0.4c-1,0.2-2,0.5-3.1,0.8c-1,0.3-2,0.7-2.9,1.1C27,78.6,26.1,79.1,25.4,79.8z"/>
						<path class="st7" d="M29.1,74.8c0.6-0.3,1.2-0.7,1.7-1c0.8-0.1,1.5-0.1,2.1-0.1c1.2,0,2,0,2,0c-2.8,1.3-5.3,2.4-7.5,3
							c-1.4,0.5-2.7,0.8-3.8,1.1C25.4,76.8,27.3,75.9,29.1,74.8z"/>
					</g>
					<g>
						<path class="st7" d="M42,101.3c0,0,1.6,0.5,4.2,0.4c1.4,0,3-0.2,4.9-0.6s4.1-1,6.5-2c0,0-2.5-0.5-5.8-0.5
							C48.6,98.6,44.6,99.1,42,101.3z"/>
						<path class="st7" d="M48,96.6c0,0,0.4,0.1,1.1,0.3c0.7,0.1,1.8,0.2,3.2,0.3c2.8,0.1,6.8-0.4,11.8-2.2c0,0-2.6-0.6-5.9-0.7
							C55,94.2,50.8,94.6,48,96.6z"/>
						<path class="st7" d="M40.5,94.3c0,0,1.6,0.4,4.5,0.3c1.4,0,3.1-0.2,5.1-0.6s4.3-1,6.8-2.1c0,0-2.6-0.5-6-0.5
							C47.4,91.5,43.2,92.1,40.5,94.3z"/>
						<path class="st7" d="M46.9,89.5c0,0,0.4,0.1,1.2,0.3c0.8,0.1,1.9,0.2,3.4,0.3c2.9,0.1,7-0.4,12.3-2.3c0,0-2.7-0.6-6.1-0.7
							C54.1,87.1,49.8,87.4,46.9,89.5z"/>
						<path class="st7" d="M39,87.2c0,0,1.7,0.4,4.7,0.3c1.5,0,3.3-0.2,5.4-0.7c2.1-0.4,4.4-1,7.1-2.1c0,0-2.7-0.5-6.3-0.5
							C46.3,84.4,41.9,85,39,87.2z"/>
					</g>
					<g>
						<path class="st7" d="M45.8,82.8c0,0,0.4,0.1,1.2,0.2c0.8,0.1,2,0.2,3.5,0.2c3,0,7.3-0.5,12.8-2.3c0,0-2.8-0.6-6.4-0.7
							C53.3,80.3,48.9,80.7,45.8,82.8z"/>
						<path class="st7" d="M37.6,80.6c0,0,1.8,0.4,4.9,0.3c1.5,0,3.4-0.2,5.6-0.7s4.6-1.1,7.4-2.1c0,0-2.8-0.5-6.5-0.4
							C45.2,77.7,40.7,78.3,37.6,80.6z"/>
						<path class="st7" d="M44.6,75.7c0,0,0.5,0.1,1.3,0.2s2.1,0.2,3.6,0.2c1.6,0,3.5-0.1,5.7-0.5s4.7-0.9,7.5-1.9
							c0,0-2.8-0.6-6.6-0.7C52.5,73.2,47.9,73.6,44.6,75.7z"/>
						<path class="st7" d="M36.1,73.5c0,0,1.9,0.4,5.1,0.2c1.6-0.1,3.6-0.3,5.8-0.7c2.3-0.5,4.8-1.1,7.6-2.2c0,0-2.9-0.5-6.7-0.4
							C44.1,70.6,39.3,71.3,36.1,73.5z"/>
					</g>
					<g>
						<path class="st7" d="M57.6,99c0,0,1.5,0.6,4.3,0.8c1.4,0.1,3.1,0.1,5-0.2c2-0.2,4.2-0.7,6.8-1.5c0,0-2.5-0.7-5.8-1
							c-1.7-0.2-3.5-0.1-5.3,0.2S59,98.1,57.6,99z"/>
						<path class="st7" d="M64.2,94.9c0,0,0.4,0.2,1.1,0.4c0.7,0.2,1.8,0.4,3.2,0.6c2.8,0.3,6.9,0.1,12.1-1.3c0,0-2.5-0.8-5.9-1.2
							c-1.7-0.1-3.6-0.2-5.4,0c-0.9,0.1-1.8,0.3-2.7,0.5C65.8,94.1,65,94.5,64.2,94.9z"/>
						<path class="st7" d="M56.8,91.9c0,0,1.6,0.6,4.5,0.8c1.4,0.1,3.2,0.1,5.2-0.2c2-0.2,4.4-0.7,7-1.5c0,0-2.6-0.7-6-1
							c-1.7-0.2-3.6-0.1-5.5,0.2C60.2,90.5,58.3,90.9,56.8,91.9z"/>
						<path class="st7" d="M63.7,87.8c0,0,0.4,0.2,1.2,0.3c0.8,0.2,1.9,0.4,3.4,0.6c2.9,0.3,7.1,0.1,12.5-1.3c0,0-2.6-0.8-6.1-1.2
							c-1.7-0.1-3.7-0.2-5.6,0c-1,0.1-1.9,0.3-2.8,0.5C65.4,87,64.5,87.3,63.7,87.8z"/>
						<path class="st7" d="M56.1,84.8c0,0,1.7,0.6,4.6,0.8c1.5,0.1,3.3,0.1,5.4-0.2c2.1-0.2,4.5-0.7,7.2-1.5c0,0-2.7-0.7-6.2-0.9
							c-1.8-0.2-3.7,0-5.7,0.2C59.6,83.3,57.7,83.8,56.1,84.8z"/>
					</g>
					<g>
						<path class="st7" d="M63.3,81c0,0,0.4,0.2,1.2,0.3c0.8,0.2,2,0.4,3.5,0.6c3,0.3,7.3,0.1,12.9-1.3c0,0-2.7-0.8-6.3-1.2
							c-1.8-0.1-3.8-0.2-5.7,0c-1,0.1-2,0.3-2.9,0.5C65,80.2,64.1,80.5,63.3,81z"/>
						<path class="st7" d="M55.4,78c0,0,1.7,0.6,4.8,0.8c1.5,0.1,3.4,0,5.6-0.2s4.7-0.7,7.5-1.5c0,0-2.8-0.7-6.4-0.9
							c-1.8-0.2-3.9,0-5.8,0.2C59,76.5,57,77,55.4,78z"/>
						<path class="st7" d="M62.8,73.8c0,0,0.4,0.2,1.2,0.3c0.8,0.2,2,0.4,3.6,0.5c3.1,0.3,7.5,0.1,13.3-1.4c0,0-2.8-0.8-6.5-1.2
							c-1.8-0.1-3.9-0.2-5.9,0c-1,0.1-2,0.3-3,0.5C64.6,73,63.6,73.4,62.8,73.8z"/>
						<path class="st7" d="M54.6,70.8c0,0,1.8,0.6,4.9,0.7c1.6,0.1,3.5,0,5.8-0.3c2.2-0.2,4.8-0.7,7.7-1.5c0,0-2.8-0.7-6.6-0.9
							c-1.9-0.2-4,0-6,0.2C58.3,69.4,56.3,69.9,54.6,70.8z"/>
					</g>
					<g>
						<path class="st7" d="M74.8,98.1c0,0,0.4,0.2,1.1,0.4c0.7,0.2,1.8,0.5,3.1,0.7c1.4,0.2,3.1,0.3,5,0.2c2-0.1,4.2-0.3,6.8-1
							c0,0-2.4-0.9-5.6-1.4C82,96.5,77.9,96.5,74.8,98.1z"/>
						<path class="st7" d="M81.8,94.5c0,0,0.4,0.2,1.1,0.4c0.7,0.2,1.8,0.5,3.2,0.8c1.4,0.3,3.1,0.4,5.1,0.4c2-0.1,4.3-0.2,6.9-0.7
							c0,0-2.4-1-5.7-1.7c-1.6-0.3-3.5-0.5-5.3-0.4c-0.9,0-1.8,0.1-2.7,0.3C83.4,93.8,82.6,94.1,81.8,94.5z"/>
						<path class="st7" d="M74.7,90.9c0,0,0.4,0.2,1.1,0.4c0.7,0.2,1.8,0.5,3.3,0.7c1.4,0.2,3.2,0.3,5.2,0.2c2-0.1,4.4-0.3,7.1-1
							c0,0-2.5-0.9-5.9-1.4C82.1,89.4,77.9,89.3,74.7,90.9z"/>
						<path class="st7" d="M81.9,87.3c0,0,0.4,0.2,1.1,0.4c0.8,0.2,1.9,0.5,3.3,0.8s3.2,0.4,5.3,0.4c2.1-0.1,4.5-0.2,7.2-0.7
							c0,0-2.5-1-5.9-1.7c-1.7-0.3-3.6-0.5-5.6-0.4c-1,0-1.9,0.1-2.8,0.3C83.6,86.7,82.7,86.9,81.9,87.3z"/>
						<path class="st7" d="M74.5,83.7c0,0,0.4,0.2,1.2,0.4c0.8,0.2,1.9,0.5,3.4,0.7s3.3,0.3,5.4,0.2c2.1,0,4.6-0.3,7.3-0.9
							c0,0-2.6-0.9-6.1-1.4C82.2,82.2,77.8,82.2,74.5,83.7z"/>
					</g>
					<g>
						<path class="st7" d="M82,80.5c0,0,0.4,0.2,1.2,0.4c0.8,0.2,1.9,0.5,3.4,0.8s3.3,0.4,5.5,0.4c2.2-0.1,4.7-0.1,7.5-0.7
							c0,0-2.6-1-6.2-1.7c-1.8-0.3-3.8-0.5-5.8-0.4c-1,0-2,0.1-2.9,0.3C83.8,79.9,82.9,80.1,82,80.5z"/>
						<path class="st7" d="M74.4,76.9c0,0,0.4,0.2,1.2,0.4c0.8,0.2,2,0.5,3.5,0.7s3.4,0.3,5.6,0.2c2.2,0,4.7-0.3,7.6-0.9
							c0,0-2.7-0.9-6.3-1.5C82.3,75.4,77.8,75.4,74.4,76.9z"/>
						<path class="st7" d="M82.1,73.3c0,0,0.4,0.2,1.2,0.4c0.8,0.2,2,0.5,3.5,0.8s3.4,0.5,5.7,0.4c2.2-0.1,4.8-0.1,7.8-0.6
							c0,0-2.7-1-6.4-1.7c-1.8-0.3-3.9-0.5-6-0.4c-1,0-2.1,0.1-3,0.3S83,73,82.1,73.3z"/>
						<path class="st7" d="M74.3,69.7c0,0,0.4,0.2,1.2,0.4c0.8,0.2,2,0.5,3.6,0.7c1.6,0.2,3.5,0.3,5.8,0.2c2.3,0,4.9-0.3,7.9-0.9
							c0,0-2.8-0.9-6.6-1.5C82.5,68.2,77.8,68.2,74.3,69.7z"/>
					</g>
					<g>
						<path class="st7" d="M90.9,98.4c0,0,0.4,0.2,1,0.5c0.7,0.3,1.7,0.7,3,1s3,0.5,4.9,0.6s4.2,0,6.8-0.4c0,0-0.6-0.3-1.5-0.7
							c-1-0.4-2.3-0.8-3.9-1.2c-1.6-0.4-3.4-0.6-5.2-0.7C94.2,97.5,92.5,97.7,90.9,98.4z"/>
						<path class="st7" d="M98.1,95.4c0,0,1.4,0.8,4.1,1.6c1.3,0.4,3,0.7,5,0.8c1.9,0.2,4.3,0.2,6.9,0c0,0-0.1-0.1-0.4-0.2
							c-0.3-0.1-0.6-0.3-1.1-0.5c-1-0.4-2.3-0.9-3.9-1.4c-1.6-0.5-3.4-0.8-5.2-0.9C101.5,94.6,99.7,94.8,98.1,95.4z"/>
						<path class="st7" d="M91.4,91.3c0,0,0.4,0.2,1.1,0.5s1.8,0.7,3.2,1c1.4,0.3,3.1,0.5,5.1,0.6s4.4,0,7.1-0.3
							c0,0-0.6-0.3-1.6-0.7c-1-0.4-2.4-0.9-4.1-1.3c-1.6-0.4-3.5-0.7-5.4-0.7C94.9,90.4,93,90.5,91.4,91.3z"/>
						<path class="st7" d="M98.8,88.3c0,0,1.5,0.8,4.3,1.6c1.4,0.4,3.1,0.7,5.2,0.9c2.1,0.2,4.5,0.2,7.2,0c0,0-0.2-0.1-0.4-0.2
							c-0.3-0.1-0.7-0.3-1.2-0.5c-1-0.4-2.4-1-4.1-1.5c-1.6-0.5-3.6-0.8-5.5-1C102.5,87.5,100.5,87.6,98.8,88.3z"/>
						<path class="st7" d="M91.8,84.1c0,0,0.4,0.2,1.1,0.5s1.9,0.7,3.3,1s3.2,0.6,5.4,0.7c2.1,0.1,4.6,0.1,7.4-0.3
							c0,0-0.6-0.3-1.7-0.7c-1.1-0.4-2.5-0.9-4.3-1.3c-1.7-0.5-3.7-0.7-5.6-0.7C95.5,83.2,93.5,83.4,91.8,84.1z"/>
					</g>
					<g>
						<path class="st7" d="M99.6,81.5c0,0,1.5,0.9,4.5,1.7c1.5,0.4,3.3,0.7,5.4,0.9c2.1,0.3,4.7,0.2,7.6,0.1c0,0-0.2-0.1-0.4-0.2
							c-0.3-0.1-0.7-0.3-1.2-0.6c-1.1-0.4-2.6-1-4.3-1.5s-3.7-0.9-5.7-1C103.3,80.8,101.4,80.9,99.6,81.5z"/>
						<path class="st7" d="M92.3,77.3c0,0,0.4,0.2,1.2,0.5c0.8,0.3,1.9,0.7,3.4,1s3.4,0.6,5.6,0.7c2.2,0.2,4.8,0.1,7.7-0.2
							c0,0-0.7-0.3-1.8-0.7c-1.1-0.4-2.7-0.9-4.5-1.3c-1.8-0.5-3.8-0.7-5.9-0.8C96.1,76.5,94.1,76.6,92.3,77.3z"/>
						<path class="st7" d="M100.4,74.4c0,0,1.6,0.9,4.6,1.7c1.5,0.4,3.4,0.7,5.7,0.9c2.3,0.3,4.9,0.3,7.9,0.1c0,0-0.2-0.1-0.5-0.2
							c-0.3-0.2-0.7-0.4-1.3-0.6c-1.1-0.4-2.7-1-4.5-1.5c-1.8-0.6-3.9-0.9-6-1C104.3,73.7,102.2,73.7,100.4,74.4z"/>
						<path class="st7" d="M108.5,71.1c0.6,0.2,1.3,0.4,1.9,0.6c0.6,0.2,1,0.4,1,0.4c-3.1,0.3-5.7,0.4-8,0.2
							c-2.3-0.1-4.2-0.4-5.8-0.7c-1.6-0.3-2.8-0.7-3.6-1c-0.8-0.3-1.2-0.5-1.2-0.5c1.8-0.7,3.9-0.8,6-0.8c2.1,0.1,4.2,0.3,6.1,0.8
							c1.3,0.3,2.4,0.6,3.4,0.9C108.3,71.1,108.4,71.1,108.5,71.1z"/>
					</g>
					<g>
						<path class="st7" d="M107.5,100.3c0,0,1.3,1,3.8,1.8c2.5,0.9,6.2,1.7,11.3,1.5c0,0-2-1.3-5-2.5c-1.5-0.5-3.2-1-4.9-1.2
							C110.9,99.7,109.1,99.8,107.5,100.3z"/>
						<path class="st7" d="M114.9,98c0,0,1.3,1,3.8,2c1.2,0.5,2.8,1,4.7,1.4c1.8,0.5,4.1,0.7,6.6,0.8c0,0-1.9-1.5-4.9-2.8
							C122.2,98.1,118.2,97.1,114.9,98z"/>
						<path class="st7" d="M108.8,93.2c0,0,1.4,1,4,1.9c2.7,0.9,6.6,1.8,11.9,1.7c0,0-2.2-1.4-5.3-2.6c-1.6-0.5-3.4-1-5.2-1.3
							C112.3,92.7,110.5,92.7,108.8,93.2z"/>
						<path class="st7" d="M116.5,91c0,0,1.3,1.1,4,2.1c1.3,0.6,3,1.1,5,1.5c2,0.5,4.4,0.7,7.1,1c0,0-2.1-1.6-5.3-3
							C124.2,91.2,120,90.2,116.5,91z"/>
						<path class="st7" d="M110,86.1c0,0,1.4,1,4.2,1.9c2.8,1,6.9,1.8,12.6,1.8c0,0-2.3-1.4-5.7-2.7c-1.7-0.6-3.6-1.1-5.5-1.4
							C113.8,85.6,111.8,85.7,110,86.1z"/>
					</g>
					<g>
						<path class="st7" d="M118,84.4c0,0,1.4,1.1,4.2,2.1c1.4,0.6,3.2,1.1,5.3,1.6s4.6,0.8,7.5,1.1c0,0-2.3-1.7-5.6-3.1
							C126.1,84.7,121.7,83.6,118,84.4z"/>
						<path class="st7" d="M111.2,79.4c0,0,1.5,1,4.5,2c2.9,1,7.3,1.9,13.3,2c0,0-2.5-1.5-6-2.8c-1.8-0.6-3.8-1.1-5.8-1.4
							C115.1,78.9,113.1,79,111.2,79.4z"/>
						<path class="st7" d="M130.4,78.8c1.2,0.9,2.3,1.9,3.2,3.2c-1.4-0.2-2.7-0.4-3.9-0.7c-2.2-0.5-4.1-1.1-5.6-1.7
							c-3-1.1-4.5-2.2-4.5-2.2C123.1,76.7,127.1,77.6,130.4,78.8z"/>
						<path class="st7" d="M125.7,76.1c-3.6-0.4-6.4-1.1-8.5-1.8c-3.1-0.9-4.7-2-4.7-2l0,0C116.9,73.5,121.6,74.4,125.7,76.1z"/>
					</g>
					<g>
						<path class="st7" d="M122.6,103.6c0,0,1.1,1.2,3.4,2.3c2.2,1.2,5.7,2.3,10.3,2.9c0,0-0.4-0.4-1.1-1c-0.7-0.6-1.7-1.4-3.1-2.1
							c-1.3-0.8-2.9-1.4-4.5-1.8C125.9,103.4,124.2,103.3,122.6,103.6z"/>
						<path class="st7" d="M139,104.8c0.2,0.9,0.4,1.8,0.5,2.7c-0.7-0.2-1.5-0.5-2.1-0.7c-1.7-0.6-3-1.4-4.1-2
							c-1.1-0.7-1.9-1.3-2.5-1.7c-0.6-0.5-0.8-0.8-0.8-0.8C133.2,101.8,136.6,103.2,139,104.8z"/>
						<path class="st7" d="M130.1,97.1c1.8,0.5,3.5,1.2,4.9,2s2.6,1.6,3.4,2.2c0,0,0,0,0.1,0.1c0,0.3,0.1,0.6,0.1,0.8
							c-4.5-0.8-7.9-1.9-10.2-3.1c-2.5-1.2-3.7-2.4-3.7-2.4C126.4,96.5,128.3,96.7,130.1,97.1z"/>
						<path class="st7" d="M137.6,96.2c0.2,1,0.3,2,0.5,3c-0.7-0.3-1.3-0.7-1.9-1c-1.2-0.7-2.1-1.4-2.7-1.8
							c-0.6-0.5-0.9-0.8-0.9-0.8C134.2,95.4,136,95.7,137.6,96.2z"/>
						<path class="st7" d="M132.6,90.3c1.5,0.4,3,1,4.3,1.6c0.2,0.9,0.3,1.8,0.5,2.8c-2.7-0.7-4.9-1.6-6.5-2.4
							c-2.7-1.2-3.9-2.4-3.9-2.4C128.7,89.7,130.7,89.9,132.6,90.3z"/>
					</g>
					<g>
						<path class="st7" d="M134.9,83.9c0,0,0,0.1,0.1,0.1c0,0,0,0,0.1,0.1c0.4,1,0.7,2,0.9,3c-1-0.4-2-0.8-2.8-1.2
							c-2.8-1.3-4.2-2.5-4.2-2.5C130.8,83.2,132.9,83.4,134.9,83.9z"/>
					</g>
				</g>
			</g>
			<g>
				<defs>
					<ellipse id="SVGID_3_" cx="76.6" cy="82.9" rx="57.9" ry="16"/>
				</defs>
				<clipPath id="SVGID_4_">
					<use xlink:href="#SVGID_3_"  style="overflow:visible;"/>
				</clipPath>
			</g>
			<g>
				<defs>
					<ellipse id="SVGID_5_" cx="76.6" cy="82.9" rx="57.9" ry="16"/>
				</defs>
				<clipPath id="SVGID_6_">
					<use xlink:href="#SVGID_5_"  style="overflow:visible;"/>
				</clipPath>
				<g class="st9">
					<g>
						<path class="st10" d="M50.7,77.2H31.4c-0.3,0.5-0.6,1.1-0.9,1.7c-0.8,1.8-1.2,3.8-1.2,5.9c0,7.4,5.3,13.3,11.8,13.3
							s11.8-6,11.8-13.3c0-2.1-0.4-4.1-1.2-5.9C51.3,78.3,51,77.7,50.7,77.2z"/>
						<path class="st11" d="M51,77.8c0,0.2,0,0.4-0.1,0.5c-0.8,1.5-4.9,2.6-9.8,2.6s-9-1.1-9.8-2.6c-0.1-0.2-0.1-0.4-0.1-0.5
							c0-0.6,0.5-1.1,1.3-1.6c1.7-1,4.9-1.6,8.6-1.6s6.9,0.6,8.6,1.6C50.5,76.7,51,77.2,51,77.8z"/>
						<path class="st12" d="M46.5,77.5c0,0.7-2.4,1.3-5.3,1.3s-5.3-0.6-5.3-1.3c0-0.7,2.4-1.3,5.3-1.3
							C44.1,76.2,46.5,76.8,46.5,77.5z"/>
						<g>
							<path class="st13" d="M35.6,77.7c0,0.2-0.3,0.3-0.7,0.3s-0.7-0.1-0.7-0.3c0-0.2,0.3-0.3,0.7-0.3
								C35.4,77.4,35.6,77.5,35.6,77.7z"/>
							<ellipse class="st13" cx="47" cy="77.8" rx="0.7" ry="0.3"/>
							<path class="st13" d="M37.1,78.6c0,0.2-0.3,0.3-0.7,0.3s-0.7-0.1-0.7-0.3c0-0.2,0.3-0.3,0.7-0.3
								C36.8,78.2,37.1,78.4,37.1,78.6z"/>
							<path class="st13" d="M40.5,79.2c0,0.3-0.5,0.5-1.1,0.5s-1.1-0.2-1.1-0.5s0.5-0.5,1.1-0.5C40.1,78.7,40.5,78.9,40.5,79.2z"/>
							<path class="st13" d="M45.6,79.1c0,0.2-0.3,0.4-0.8,0.4c-0.4,0-0.8-0.2-0.8-0.4c0-0.2,0.3-0.4,0.8-0.4
								C45.3,78.8,45.6,78.9,45.6,79.1z"/>
							<path class="st13" d="M36.6,76.6c0-0.2-0.4-0.4-0.9-0.4s-0.9,0.2-0.9,0.4c0,0.2,0.4,0.4,0.9,0.4S36.6,76.8,36.6,76.6z"/>
							<path class="st13" d="M40.2,76c0-0.2-0.4-0.4-0.9-0.4s-0.9,0.2-0.9,0.4c0,0.2,0.4,0.4,0.9,0.4S40.2,76.2,40.2,76z"/>
							<path class="st13" d="M46.2,76.4c0-0.2-0.4-0.4-0.9-0.4s-0.9,0.2-0.9,0.4c0,0.2,0.4,0.4,0.9,0.4S46.2,76.6,46.2,76.4z"/>
						</g>
						<ellipse class="st14" cx="37.9" cy="87.6" rx="2.8" ry="3.7"/>
						<ellipse class="st14" cx="44.3" cy="87.6" rx="2.8" ry="3.7"/>
						<path class="st15" d="M41.8,91c-0.1-0.1-0.2-0.1-0.3,0c0,0.1,0,0.3,0,0.4s0,0.2-0.1,0.3c-0.1,0.1-0.2,0.3-0.3,0.3
							c-0.4,0.1-0.5-0.8-0.5-1c0-0.1-0.2-0.1-0.2,0c-0.1,0.5,0,1.3,0.7,1.3c0.2,0,0.4-0.2,0.6-0.4C41.8,91.8,42,91.3,41.8,91z"/>
						<path class="st15" d="M37.8,82.6c-0.5-0.5-1.3,0.1-1.7,0.6c-0.1,0.1,0.1,0.2,0.1,0.1c0.2-0.2,0.4-0.3,0.6-0.5
							C37.1,82.6,37.4,82.7,37.8,82.6C37.8,82.7,37.9,82.7,37.8,82.6z"/>
						<path class="st15" d="M44.7,83.1c-0.4-0.9-1.6-0.6-2.2-0.1c-0.1,0,0,0.1,0.1,0.1c0.3-0.2,0.6-0.3,1-0.3
							C44.1,82.8,44.3,83,44.7,83.1C44.7,83.3,44.8,83.2,44.7,83.1z"/>
						<ellipse class="st13" cx="38.1" cy="87.7" rx="1.8" ry="2.5"/>
						<ellipse class="st13" cx="44" cy="87.7" rx="1.8" ry="2.5"/>
						<ellipse class="st14" cx="37.6" cy="85.4" rx="0.5" ry="0.7"/>
						<ellipse class="st14" cx="43.5" cy="85.4" rx="0.5" ry="0.7"/>
					</g>
				</g>
			</g>
			<g>
				<defs>
					<ellipse id="SVGID_7_" cx="76.6" cy="82.9" rx="57.9" ry="16"/>
				</defs>
				<clipPath id="SVGID_8_">
					<use xlink:href="#SVGID_7_"  style="overflow:visible;"/>
				</clipPath>
				<g class="st16">
					<g>
						<path class="st10" d="M87.7,72.3H49.1c-0.7,1.1-1.3,2.2-1.8,3.4c-1.5,3.6-2.4,7.6-2.4,11.8c0,14.7,10.5,26.7,23.5,26.7
							s23.5-11.9,23.5-26.7c0-4.2-0.9-8.2-2.4-11.8C89,74.5,88.4,73.4,87.7,72.3z"/>
						<path class="st11" d="M88.2,73.5c0,0.4-0.1,0.7-0.3,1.1c-1.6,3-9.7,5.3-19.5,5.3s-17.9-2.3-19.5-5.3c-0.2-0.3-0.3-0.7-0.3-1.1
							c0-1.1,1-2.2,2.6-3.2c3.4-1.9,9.8-3.2,17.2-3.2c7.4,0,13.8,1.3,17.2,3.2C87.3,71.3,88.2,72.4,88.2,73.5z"/>
						<path class="st12" d="M79.3,73c0,1.5-4.7,2.6-10.6,2.6c-5.8,0-10.6-1.2-10.6-2.6c0-1.5,4.7-2.6,10.6-2.6
							C74.5,70.3,79.3,71.5,79.3,73z"/>
						<g>
							<path class="st13" d="M57.6,73.4c0,0.3-0.6,0.6-1.3,0.6c-0.7,0-1.3-0.3-1.3-0.6c0-0.3,0.6-0.6,1.3-0.6
								C57,72.7,57.6,73,57.6,73.4z"/>
							<ellipse class="st13" cx="80.3" cy="73.5" rx="1.4" ry="0.7"/>
							<path class="st13" d="M60.5,75.1c0,0.4-0.6,0.7-1.4,0.7s-1.4-0.3-1.4-0.7c0-0.4,0.6-0.7,1.4-0.7S60.5,74.7,60.5,75.1z"/>
							<path class="st13" d="M67.4,76.3c0,0.5-0.9,1-2.1,1s-2.1-0.4-2.1-1c0-0.5,0.9-1,2.1-1C66.4,75.3,67.4,75.7,67.4,76.3z"/>
							<path class="st13" d="M77.6,76.2c0,0.4-0.7,0.7-1.5,0.7s-1.5-0.3-1.5-0.7c0-0.4,0.7-0.7,1.5-0.7
								C76.9,75.5,77.6,75.8,77.6,76.2z"/>
							<path class="st13" d="M59.5,71.1c0-0.5-0.8-0.8-1.7-0.8c-1,0-1.7,0.4-1.7,0.8c0,0.5,0.8,0.8,1.7,0.8
								C58.7,72,59.5,71.6,59.5,71.1z"/>
							<path class="st13" d="M66.7,69.8c0-0.5-0.8-0.8-1.8-0.8s-1.7,0.4-1.7,0.8c0,0.5,0.8,0.8,1.7,0.8
								C65.9,70.7,66.7,70.3,66.7,69.8z"/>
							<path class="st13" d="M78.8,70.7c0-0.5-0.8-0.9-1.8-0.9s-1.8,0.4-1.8,0.9s0.8,0.9,1.8,0.9S78.8,71.2,78.8,70.7z"/>
						</g>
						<ellipse class="st14" cx="62.2" cy="93.2" rx="5.6" ry="7.4"/>
						<ellipse class="st14" cx="75" cy="93.2" rx="5.6" ry="7.4"/>
						<path class="st15" d="M69.9,100c-0.1-0.2-0.4-0.1-0.5,0.1s0,0.5-0.1,0.8c0,0.2-0.1,0.4-0.2,0.7c-0.1,0.3-0.3,0.6-0.6,0.6
							c-0.9,0.2-1-1.5-1-2c0-0.2-0.4-0.3-0.4-0.1c-0.2,1,0,2.7,1.4,2.7c0.5,0,0.9-0.3,1.1-0.7C70,101.5,70.2,100.5,69.9,100z"/>
						<path class="st15" d="M62,83.2c-1.1-0.9-2.7,0.2-3.3,1.2c-0.1,0.2,0.1,0.4,0.3,0.2c0.3-0.4,0.7-0.7,1.2-0.9
							c0.6-0.3,1.1-0.2,1.8-0.2C62,83.4,62.1,83.2,62,83.2z"/>
						<path class="st15" d="M75.8,84.2c-0.8-1.8-3.1-1.2-4.3-0.3c-0.1,0.1,0,0.3,0.2,0.2c0.6-0.3,1.3-0.6,2-0.6c0.8,0,1.4,0.4,2,0.9
							C75.8,84.5,75.9,84.3,75.8,84.2z"/>
						<ellipse class="st13" cx="62.6" cy="93.4" rx="3.5" ry="4.9"/>
						<ellipse class="st13" cx="74.4" cy="93.4" rx="3.5" ry="4.9"/>
						<ellipse class="st14" cx="61.5" cy="88.8" rx="1" ry="1.5"/>
						<ellipse class="st14" cx="73.3" cy="88.8" rx="1" ry="1.5"/>
					</g>
				</g>
			</g>
		</g>
		<g>
			<g>
				<path class="st10" d="M130.8,62.4l-25-14.7c-0.8,0.4-1.7,1-2.4,1.6c-2.4,1.7-4.4,4-6,6.7c-5.6,9.6-3.3,21.2,5,26.2
					c8.4,4.9,19.7,1.2,25.3-8.3c1.6-2.8,2.5-5.7,2.9-8.5C130.7,64.3,130.8,63.4,130.8,62.4z"/>
				<path class="st11" d="M130.6,63.4c-0.2,0.3-0.3,0.4-0.6,0.6c-2.2,1.4-8.3-0.2-14.6-3.9c-6.4-3.7-10.8-8.3-10.6-10.8
					c0.1-0.3,0.1-0.5,0.2-0.8c0.5-0.8,1.5-1.1,2.9-1.1c3,0.1,7.6,1.7,12.3,4.5s8.4,6.1,9.9,8.6C130.8,61.5,131,62.7,130.6,63.4z"/>
				<path class="st12" d="M125,59.6c-0.6,0.9-4,0-7.8-2.3c-3.8-2.2-6.4-4.8-5.8-5.7c0.6-0.9,4,0,7.8,2.3
					C123,56.1,125.6,58.7,125,59.6z"/>
				<g>
					<path class="st13" d="M110.9,51.7c-0.2,0.3-0.6,0.2-1.1-0.1s-0.8-0.7-0.6-0.9c0.2-0.3,0.6-0.2,1.1,0.1
						C110.7,51,111,51.4,110.9,51.7z"/>
					
						<ellipse transform="matrix(0.5065 -0.8622 0.8622 0.5065 9.8758 137.9805)" class="st13" cx="125.5" cy="60.4" rx="0.5" ry="1"/>
					<path class="st13" d="M112.1,53.9c-0.2,0.3-0.7,0.2-1.1-0.1c-0.5-0.3-0.8-0.7-0.6-0.9c0.2-0.3,0.7-0.2,1.1,0.1
						S112.3,53.6,112.1,53.9z"/>
					<path class="st13" d="M116.1,57.3c-0.2,0.3-1,0.2-1.7-0.2c-0.8-0.5-1.2-1.1-1-1.4c0.2-0.3,1-0.2,1.7,0.2
						C115.9,56.2,116.3,56.9,116.1,57.3z"/>
					<path class="st13" d="M122.7,61c-0.2,0.3-0.7,0.2-1.2-0.1c-0.5-0.3-0.8-0.7-0.7-1s0.7-0.2,1.2,0.1
						C122.5,60.3,122.8,60.8,122.7,61z"/>
					<path class="st13" d="M112.9,50.9c0.2-0.3-0.2-0.8-0.8-1.2c-0.6-0.4-1.3-0.4-1.4-0.1c-0.2,0.3,0.2,0.8,0.8,1.2
						C112.1,51.1,112.7,51.3,112.9,50.9z"/>
					<path class="st13" d="M118.1,52.8c0.2-0.3-0.2-0.8-0.8-1.2s-1.3-0.4-1.4-0.1c-0.2,0.3,0.2,0.8,0.8,1.2
						C117.2,53.1,117.9,53.1,118.1,52.8z"/>
					<path class="st13" d="M125.5,57.9c0.2-0.3-0.2-0.8-0.9-1.2c-0.7-0.4-1.4-0.5-1.5-0.2c-0.2,0.3,0.2,0.8,0.9,1.2
						C124.7,58.2,125.4,58.2,125.5,57.9z"/>
				</g>
				
					<ellipse transform="matrix(0.5065 -0.8622 0.8622 0.5065 -4.6728 124.3037)" class="st14" cx="106.3" cy="66.2" rx="5.6" ry="4.2"/>
				
					<ellipse transform="matrix(0.5065 -0.8622 0.8622 0.5065 -4.781 133.8401)" class="st14" cx="114.5" cy="71.1" rx="5.6" ry="4.2"/>
				<path class="st15" d="M108.7,73.5c0-0.2-0.2-0.2-0.3-0.2c-0.2,0.1-0.2,0.3-0.3,0.5c-0.1,0.2-0.2,0.2-0.3,0.4
					c-0.2,0.1-0.4,0.2-0.7,0.2c-0.7-0.2,0-1.3,0.2-1.6c0.1-0.2-0.2-0.3-0.3-0.2c-0.4,0.6-1,1.7-0.2,2.2c0.3,0.2,0.8,0.1,0.9,0
					C108.2,74.6,108.7,73.9,108.7,73.5z"/>
				<path class="st15" d="M110,59.6c-0.3-1-1.8-0.8-2.6-0.5c-0.1,0-0.1,0.3,0.1,0.3c0.4-0.1,0.8-0.1,1.1-0.1c0.4,0,0.9,0.3,1.2,0.6
					C109.9,59.8,110,59.7,110,59.6z"/>
				<path class="st15" d="M118.5,65.5c0.1-1.4-1.5-1.9-2.7-1.8c-0.1,0-0.1,0.2,0,0.2c0.6,0,1.1,0.2,1.5,0.4c0.5,0.3,0.7,0.8,1,1.3
					C118.4,65.7,118.5,65.7,118.5,65.5z"/>
				
					<ellipse transform="matrix(0.5065 -0.8622 0.8622 0.5065 -4.7755 124.6006)" class="st13" cx="106.5" cy="66.5" rx="3.7" ry="2.6"/>
				
					<ellipse transform="matrix(0.5065 -0.8622 0.8622 0.5065 -4.8747 133.3423)" class="st13" cx="114.1" cy="70.9" rx="3.7" ry="2.6"/>
				
					<ellipse transform="matrix(0.5065 -0.8622 0.8622 0.5065 -1.389 123.8442)" class="st14" cx="107.5" cy="63.1" rx="1.1" ry="0.8"/>
				
					<ellipse transform="matrix(0.5065 -0.8622 0.8622 0.5065 -1.4882 132.5859)" class="st14" cx="115.1" cy="67.6" rx="1.1" ry="0.8"/>
			</g>
		</g>
	</g>
</g>
<g>
	<g>
		<path class="st10" d="M182.8,17.6L158.6,1.7c-0.9,0.4-1.8,0.9-2.5,1.5c-2.5,1.6-4.6,3.8-6.3,6.4c-6.1,9.3-4.4,21,3.7,26.4
			c8.1,5.3,19.6,2.2,25.7-7c1.8-2.7,2.8-5.6,3.3-8.3C182.7,19.4,182.8,18.6,182.8,17.6z"/>
		<path class="st11" d="M182.5,18.5c-0.2,0.3-0.4,0.4-0.6,0.6c-2.3,1.3-8.3-0.7-14.4-4.7c-6.2-4.1-10.3-8.8-10-11.4
			c0.1-0.3,0.1-0.5,0.3-0.8c0.5-0.8,1.5-1,3-0.9c2.9,0.3,7.5,2.1,12.1,5.1c4.6,3,8.1,6.5,9.5,9.1C182.9,16.7,183,17.9,182.5,18.5z"
			/>
		<path class="st12" d="M177.2,14.5c-0.6,0.9-4-0.3-7.7-2.7c-3.7-2.4-6.1-5.1-5.5-6c0.6-0.9,4,0.3,7.7,2.7
			C175.3,10.9,177.8,13.6,177.2,14.5z"/>
		<g>
			<path class="st13" d="M163.5,5.9c-0.2,0.3-0.6,0.2-1.1-0.1c-0.5-0.3-0.7-0.7-0.6-1c0.2-0.3,0.6-0.2,1.1,0.1
				C163.3,5.2,163.6,5.6,163.5,5.9z"/>
			
				<ellipse transform="matrix(0.5498 -0.8353 0.8353 0.5498 67.1939 155.2437)" class="st13" cx="177.6" cy="15.3" rx="0.5" ry="1"/>
			<path class="st13" d="M164.6,8.2c-0.2,0.3-0.7,0.1-1.1-0.1c-0.5-0.3-0.7-0.7-0.6-1c0.2-0.3,0.7-0.1,1.1,0.1S164.8,7.9,164.6,8.2z
				"/>
			<path class="st13" d="M168.4,11.7c-0.2,0.3-1,0.2-1.7-0.3s-1.2-1.1-1-1.5c0.2-0.3,1-0.2,1.7,0.3
				C168.2,10.7,168.6,11.4,168.4,11.7z"/>
			<path class="st13" d="M174.8,15.8c-0.2,0.3-0.7,0.1-1.2-0.2c-0.5-0.3-0.8-0.8-0.6-1c0.2-0.3,0.7-0.1,1.2,0.2
				C174.6,15.1,174.9,15.6,174.8,15.8z"/>
			<path class="st13" d="M165.6,5.2c0.2-0.3-0.2-0.8-0.8-1.2c-0.6-0.4-1.3-0.5-1.4-0.2s0.2,0.8,0.8,1.2
				C164.7,5.4,165.3,5.5,165.6,5.2z"/>
			<path class="st13" d="M170.6,7.3c0.2-0.3-0.2-0.8-0.8-1.2c-0.6-0.4-1.3-0.5-1.4-0.2c-0.2,0.3,0.2,0.8,0.8,1.2
				C169.7,7.6,170.4,7.7,170.6,7.3z"/>
			<path class="st13" d="M177.8,12.9c0.2-0.3-0.2-0.8-0.8-1.3c-0.7-0.4-1.3-0.5-1.5-0.3c-0.2,0.3,0.2,0.8,0.8,1.3
				C176.9,13,177.6,13.1,177.8,12.9z"/>
		</g>
		
			<ellipse transform="matrix(0.5498 -0.8353 0.8353 0.5498 54.3344 141.1574)" class="st14" cx="158.1" cy="20.2" rx="5.6" ry="4.2"/>
		
			<ellipse transform="matrix(0.5498 -0.8353 0.8353 0.5498 53.5363 150.2321)" class="st14" cx="166.1" cy="25.5" rx="5.6" ry="4.2"/>
		<path class="st15" d="M160.2,27.5c0-0.2-0.2-0.2-0.3-0.2c-0.2,0.1-0.2,0.3-0.3,0.5c-0.1,0.2-0.2,0.2-0.4,0.4
			c-0.2,0.1-0.4,0.2-0.7,0.1c-0.7-0.2,0-1.3,0.2-1.6c0.1-0.2-0.1-0.3-0.3-0.2c-0.5,0.5-1.1,1.7-0.3,2.2c0.3,0.2,0.7,0.1,0.9,0
			C159.6,28.6,160.2,28,160.2,27.5z"/>
		<path class="st15" d="M162.2,13.8c-0.3-1-1.8-0.9-2.6-0.6c-0.1,0-0.1,0.3,0.1,0.3c0.4-0.1,0.8-0.1,1.1-0.1
			c0.4,0.1,0.9,0.3,1.1,0.6C162.1,13.9,162.2,13.9,162.2,13.8z"/>
		<path class="st15" d="M170.4,20.1c0.2-1.4-1.4-2-2.6-1.9c-0.1,0-0.1,0.2,0,0.2c0.6,0,1.1,0.2,1.5,0.5c0.5,0.3,0.7,0.8,0.9,1.3
			C170.3,20.3,170.4,20.2,170.4,20.1z"/>
		
			<ellipse transform="matrix(0.5498 -0.8353 0.8353 0.5498 54.215 141.4327)" class="st13" cx="158.3" cy="20.4" rx="3.7" ry="2.6"/>
		
			<ellipse transform="matrix(0.5498 -0.8353 0.8353 0.5498 53.4833 149.7511)" class="st13" cx="165.7" cy="25.3" rx="3.7" ry="2.6"/>
		
			<ellipse transform="matrix(0.5498 -0.8353 0.8353 0.5498 57.4954 140.9591)" class="st14" cx="159.5" cy="17.1" rx="1.1" ry="0.8"/>
		<ellipse transform="matrix(0.5498 -0.8353 0.8353 0.5498 56.7638 149.2776)" class="st14" cx="166.9" cy="22" rx="1.1" ry="0.8"/>
	</g>
</g>
</svg>
